<?xml version="1.0" encoding="UTF-8"?>
<svg id="Capa_13" data-name="Capa 13" xmlns="http://www.w3.org/2000/svg" xmlns:xlink="http://www.w3.org/1999/xlink" viewBox="0 0 1668.48 1247.43">
  <defs>
    <style>
      .cls-1 {
        fill: #009f78;
      }

      .cls-2 {
        fill: #92623c;
      }

      .cls-3, .cls-4, .cls-5 {
        font-size: 12px;
      }

      .cls-3, .cls-4, .cls-5, .cls-6 {
        font-family: Raleway-SemiBold, Raleway;
        font-weight: 600;
      }

      .cls-7, .cls-8, .cls-9, .cls-10, .cls-11, .cls-12, .cls-13, .cls-14, .cls-15, .cls-16, .cls-17, .cls-18, .cls-19, .cls-20 {
        stroke: #19151a;
      }

      .cls-7, .cls-9, .cls-10, .cls-11, .cls-12, .cls-13, .cls-14, .cls-15, .cls-16, .cls-17, .cls-18, .cls-20 {
        stroke-miterlimit: 10;
      }

      .cls-7, .cls-21 {
        fill: #ffe08a;
      }

      .cls-8, .cls-22, .cls-12 {
        fill: #ffcb03;
      }

      .cls-8, .cls-19 {
        stroke-linecap: round;
        stroke-linejoin: round;
      }

      .cls-9, .cls-11, .cls-14, .cls-23, .cls-19 {
        fill: none;
      }

      .cls-4 {
        letter-spacing: -.02em;
      }

      .cls-24 {
        fill: #e03d3e;
      }

      .cls-10, .cls-25 {
        fill: #19151a;
      }

      .cls-11 {
        stroke-width: .75px;
      }

      .cls-5 {
        letter-spacing: -.03em;
      }

      .cls-13 {
        fill: #354e84;
      }

      .cls-14, .cls-19 {
        stroke-width: .5px;
      }

      .cls-6 {
        font-size: 10px;
      }

      .cls-26 {
        clip-path: url(#clippath);
      }

      .cls-15 {
        fill: #e2ded0;
      }

      .cls-16 {
        fill: #70d3a7;
      }

      .cls-17 {
        fill: #fcfcfc;
      }

      .cls-18 {
        fill: #f5f5f5;
      }

      .cls-20 {
        fill: gray;
      }
    </style>
    <clipPath id="clippath">
      <rect class="cls-23" x="554.59" y="109.85" width="625" height="1090.72"/>
    </clipPath>
  </defs>
  <g class="cls-26">
    <rect class="cls-16" x="554.59" y="109.85" width="625" height="1090.72"/>
    <rect class="cls-12" x="806.89" y="939.9" width="44.1" height="72.27" transform="translate(-442.26 1130.47) rotate(-56.59)"/>
    <path class="cls-13" d="M1278.13,464.53l-3.75,9.87c-1.08,.7-51.41,.98-115.41,.95-2.92,.01-5.87,.01-8.84,0h-3.92c-2.87,0-5.76-.01-8.68-.02-.05,.01-.11,.01-.17,0-1.18,.01-2.37,0-3.56,0-93.11-.15-203.88-.86-236.44-1.82-3.37-.1-5.9-.2-7.49-.31-.04,0-.08,0-.11-.01-.75-.05-1.28-.1-1.57-.15-.69,5.14-1.98,10.28-3.93,15.28-.36,.93-.76,1.83-1.2,2.7h0c-11.59,23.65-45.85,25.92-57.05,25.59-11.61-.34-30.26,2.05-44.41-1.36-14.15-3.4-26.02-6.81-33.8,6.81-7.78,13.62,0,23.15-32.05,80.54-21.03,37.65-4.03,36.26-46.3,75.72-33.36,31.14-57.87,19.3-108.86,76.93-23.91,30.98-32.08,43.58-33.78,45.72-.32,.4-5.01,17.56,4.43,29.39,19.66,24.64,80.05-2.13,128.17,11.23,27.57,7.66,8.68,88.85,17.87,124.6,4.57,17.79-74.55,29.11-90.89,57.19s18.38,180.77,11.23,189.45-18.98,2.14-19.91-.51c-1.15-3.29-12.34-153.48-13.49-156.79-.94-2.69-4.32-34.46,9.46-57.44s83.18-14.54,83.18-52.84,15.29-85.07-23.52-90.15c-31.5-4.12-123,8.05-126.23-2.53-5.62-18.43,1.34-56.67,4.04-62.25,4.77-9.88,54.81-60.6,115.4-98.05,60.6-37.44,55.83-45.27,65.79-62.53,9.96-17.27,32.26-81.81,36.34-99.17,4.09-17.36,13.62-32.68,51.75-33.02,38.12-.34,67.88,12.6,90.89-25.19,17.19-28.23-12.25-56.17-25.53-75.92-9.17-13.63-20.09-78.29,18.04-86.46,25.46-5.46,16.34-10.56,38.47-14.98,11.59-2.32,41.19-3.07,55.49-12.26,14.3-9.19,35.74-38.13,51.4-90.89,.52-1.75,1.03-3.54,1.55-5.36,.77-2.75,1.53-5.57,2.28-8.46,13.78-52.94,24.09-126.78,24.09-126.78,0,0,35.06,9.88,24.17,11.24-10.9,1.36-23.83,40.85-23.15,51.4,.4,6.22-6.64,33.82-14.1,60.47-.79,2.82-1.59,5.64-2.38,8.41-4.41,15.49-8.71,29.81-11.44,38.36-7.83,24.51-17.7,37.78-39.83,62.63-22.12,24.85-66.72,31.66-82.46,29.96-15.75-1.7-34.98,3.06-41.45,30.64-6.47,27.57,8.85,60.59,24.45,74.21,9.41,8.23,16.05,22.4,17.57,38.1h0c.25,2.59,.37,5.21,.33,7.86h389.31Z"/>
    <path class="cls-20" d="M1316.08,791.3h-155.58c-.85,0-1.53-.69-1.53-1.53V463.06c0-.31,.1-.61,.27-.87,.18-.26,.3-.58,.3-.92v-6.82h-.01l-.13-60.79c0-.32-.09-.61-.25-.86-.14-.22-.18-.49-.18-.75V155.53c0-.68,.55-1.24,1.24-1.24h71.11v-10.74h-71.11c-.69,0-1.24-.55-1.24-1.24v-55.69c0-.85-.69-1.54-1.54-1.54h-5.77c-.84,0-1.53,.69-1.53,1.54v55.79c0,.63-.51,1.14-1.14,1.14h-1.64c-.63,0-1.14-.51-1.14-1.14v-55.79c0-.85-.69-1.54-1.54-1.54h-5.61c-.84,0-1.53,.69-1.53,1.54v55.79c0,.63-.51,1.14-1.14,1.14h-1.59v.14c-37.77,1.94-74.71,18.23-110.77,30.67-3.68,1.27-7.35,2.5-11.01,3.67-7.19,2.3-14.35,4.37-21.47,6.06-10.18,3.2-27.28,4.47-48.82,4.76-7.3,.1-15.1,.09-23.33,0H500.09v8.29h439.36c1.72,0,3.41-.01,5.06-.02,20.67-.18,36.53-1.54,47.32-5.31,5.5-1.14,11.87-3.01,18.91-5.32,3.48-1.15,7.12-2.4,10.91-3.72,5.57-1.95,11.45-4.05,17.56-6.21,.8-.28,1.64,.31,1.64,1.16v8.26c0,1.19-.96,2.16-2.16,2.16h-.84c-1.19,0-2.16,.97-2.16,2.16v30.62s0,.08,.01,.12c.06,1.14,1,2.04,2.15,2.04h8.31c1.19,0,2.16-.97,2.16-2.16v-21.47c0-1.19,.97-2.15,2.16-2.15h7.11c.87,0,1.62-.52,1.96-1.26,.13-.27,.2-.58,.2-.9v-.92c0-.32-.07-.63-.2-.9-.34-.74-1.09-1.26-1.96-1.26h-7.11c-1.19,0-2.16-.97-2.16-2.16v-1.76h-.1v-13.84c0-.53,.32-1.01,.83-1.16,30.13-8.89,50.37-15.95,62.21-17.26,1.32-.15,2.53-.23,3.64-.23v54.84c0,.78,.63,1.41,1.41,1.41h4.8c.76,0,1.37,.6,1.41,1.34h0s0,.05,0,.08v45.68c0,.78-.63,1.41-1.42,1.41h-14.66c-.72,0-1.37-.5-1.45-1.19v-.17s-.02-.01-.02-.02c.02-.8-.62-1.45-1.42-1.45h-39.5s-.1,0-.15-.02c-.26-.02-.49-.11-.69-.26h0c-.34-.26-.57-.67-.57-1.14v-8.45c0-.78-.62-1.4-1.41-1.41h-34.25c-.78,0-1.41,.63-1.41,1.41v16.98c0,.78,.63,1.41,1.41,1.41h17.39c.78,0,1.42,.64,1.42,1.42v8.06c0,.78,.63,1.42,1.42,1.42h56.35c.78,0,1.42-.64,1.42-1.42v-6.87c0-.18,.03-.34,.1-.5h0c.19-.54,.71-.92,1.32-.92h20.01c.79,0,1.42,.63,1.42,1.42v29.68c0,.79,.64,1.42,1.42,1.42h4.14c.14,0,.27-.02,.4-.06,.59-.17,1.02-.71,1.02-1.36v-36.56c0-.78,.63-1.42,1.42-1.42,.62,0,1.13,.43,1.26,1.01,.03,.09,.04,.2,.04,.3v52.04c0,.85-.69,1.54-1.53,1.54h-13.87c-10.64,0-19.56,7.3-22.04,17.17-.44,1.77-.68,3.63-.68,5.55v52.51c0,.84-.69,1.53-1.54,1.53h-32.88c-.64,0-1.27,.2-1.8,.57l-64.44,45.15c-.87,.61-1.95,.72-2.89,.37-.07-.03-.15-.06-.22-.09-.41-.18-.79-.46-1.1-.83l-5.28-6.31c-1.67-1.99-2.59-4.52-2.59-7.13v-3.34c0-3.13-2.54-5.67-5.67-5.67h-37.2c-1.4,0-2.68,.51-3.67,1.35-1.22,1.04-2,2.59-2,4.32v19.44c0,1.73,.78,3.28,2,4.32,.99,.84,2.27,1.35,3.67,1.35h29.3c5.1,0,9.55-2.82,11.87-6.99,.44-.78,1.54-.86,2.11-.18l1.8,2.14c.43,.52,.67,1.14,.72,1.76v.06c.07,1.05-.4,2.11-1.32,2.76l-12.01,8.41c-.64,.46-1.38,.75-2.15,.87-.26,.04-.53,.06-.79,.06h-75.97v-2.3h-7.49v71.44c0,3.65-2.95,6.6-6.59,6.6h-113.26c-10.1,0-16.25,6.4-19.57,15.94l-12.56,36.04-10.29,28.97s-.03,.08-.04,.12c-19.68,45.11-44.38,44.89-44.38,87.01l-.03,32.56c0,1.53-1.24,2.77-2.77,2.77h-82.39c-1.47,0-2.67,1.2-2.67,2.67v43.17c0,1.48,1.2,2.68,2.68,2.68h67.17c6.36,0,11.82-3.84,14.2-9.33,.43-.99,1.38-1.66,2.47-1.66h7.31c1.2,0,2.17,.97,2.17,2.17v7.29c0,.84-.69,1.53-1.53,1.53h-7.78c-.41,0-.81,.17-1.1,.46l-8.04,8.26c-.29,.29-.69,.46-1.1,.46h-76.45s-62.69,6.03-62.69,6.03c-.85,.08-1.46,.83-1.38,1.68l1.86,19.51,.02,.18c.08,.85,.83,1.46,1.68,1.38l58.83-5.64c.9-.09,1.68,.62,1.68,1.53v.43c0,.84,.69,1.53,1.53,1.53h187.02c.85,0,1.54,.69,1.54,1.54v21.36c0,.84,.68,1.53,1.53,1.53h47.1c1.74,0,3.4-.32,4.94-.89,5.32-2,9.11-7.14,9.11-13.16v-8.85c0-.84,.69-1.53,1.53-1.53h286.38c.84,0,1.53,.69,1.53,1.53v258.81c0,.85,.69,131.49,1.54,131.49h5.61c.85,0,1.53-130.64,1.53-131.48v-125.73c0-.92,.75-1.67,1.67-1.67h.58c.92,0,1.67,.75,1.67,1.67v125.72c0,.85,.69,131.49,1.53,131.49h5.77c.85,0,1.54-130.64,1.54-131.49v-258.81c0-.84,.68-1.53,1.53-1.53h155.58c.85,0,1.54-.69,1.54-1.54v-23.56c0-.84-.69-1.53-1.54-1.53Zm-169.87-635.87c0-.63,.51-1.14,1.14-1.14h1.64c.63,0,1.14,.51,1.14,1.14v235.1c0,.84-.69,1.53-1.53,1.53h-.85c-.85,0-1.54-.69-1.54-1.53V155.43Zm-8.68,592.71c0,.25-.06,.48-.17,.69-.25,.51-.77,.85-1.36,.85h-23.15c-.84,0-1.53,.69-1.53,1.53v18.64c0,.84-.69,1.53-1.53,1.53h-28.08c-.85,0-1.54,.69-1.54,1.53v16.86c0,.84-.69,1.53-1.53,1.53h-2.01c-.19,.08-.4,.12-.62,.12h-173.35c-.21,0-.42-.04-.61-.12h-1.13c-.36,0-.71-.13-.99-.36l-10.05-8.46c-.28-.23-.63-.36-.99-.36h-186.25c-.42,0-.8-.17-1.07-.44-.29-.28-.46-.67-.46-1.09v-7.29c0-1.2,.97-2.17,2.17-2.17h58.38c1.48,0,2.68-1.2,2.68-2.68v-24.77c0-1.48-1.2-2.68-2.68-2.68h-11.74c-1.48,0-2.68-1.2-2.68-2.68v-19.66c0-1.48-1.2-2.68-2.68-2.68h-50.17c-1.13,0-2.05-.92-2.05-2.05v-24.49c0-3.5,1.2-6.73,3.21-9.28,2.75-3.51,7.03-5.77,11.84-5.77h30.84c.88,0,1.6-.72,1.6-1.6v-29.98c0-.88,.72-1.6,1.6-1.6h11.84c.88,0,1.6-.72,1.6-1.6v-55.84c0-.88-.72-1.6-1.6-1.6h-6.11c-1.1,0-1.88-1.08-1.52-2.13l10.84-31.57c2.26-6.6,6.89-11.03,13.86-11.03h106.34v67.84c0,1.15-.93,2.08-2.08,2.08h-2.85c-1.15,0-2.08,.93-2.08,2.08v88.46c0,1.14,.93,2.08,2.08,2.08h19.49v35.85c0,2.86-2.31,5.17-5.17,5.17h-61.42c-1.09,0-1.97,.88-1.97,1.97v26.98c0,1.09,.88,1.97,1.97,1.97h65.77c1.09,0,1.97-.88,1.97-1.97v-19.97c0-.53,.21-1.03,.58-1.4l3.81-3.81c.37-.37,.58-.88,.58-1.4V466.87c0-.88,.28-1.69,.75-2.34,.73-1.01,1.91-1.66,3.25-1.66h234.64c.6,0,1.12,.35,1.36,.85,.11,.21,.17,.44,.17,.68v283.74Zm-255.03,6.35c1.3,0,2.3,1.24,1.87,2.61-.26,.82-1.09,1.33-1.95,1.33h-52.03c-.86,0-1.69-.51-1.95-1.33-.43-1.37,.57-2.61,1.87-2.61h52.19Zm267.63,181.45c0,.92-.75,1.67-1.67,1.67h-.58c-.92,0-1.67-.75-1.67-1.67v-116.48c0-.84,.69-1.53,1.53-1.53h.86c.84,0,1.53,.69,1.53,1.53v116.48Zm0-146.17c0,.84-.69,1.53-1.53,1.53h-.85c-.85,0-1.54-.69-1.54-1.54V464.4c0-.85,.69-1.53,1.53-1.53h.86c.84,0,1.53,.69,1.53,1.53v325.37Z"/>
    <g id="Banquetas">
      <path class="cls-18" d="M1137.53,260.06v184.62c0,1.21-.98,2.19-2.19,2.19h-21.23c-.6,0-1.09-.49-1.09-1.09v-4.97c0-.6,.49-1.09,1.09-1.09h17.64c1.12,0,2.04-.92,2.04-2.04v-63.38c0-.6-.49-1.09-1.09-1.09h-4.27c-.6,0-1.09-.49-1.09-1.09v-3.44c0-.6-.49-1.09-1.09-1.09h-.44c-1.15,0-2.13-.77-2.44-1.82-.13-.44-.56-.73-1.03-.73h-6.74c-.6,0-1.09-.49-1.09-1.09v-1.27c0-.6,.49-1.09,1.09-1.09h6.87c.46,0,.84-.3,1.02-.71,.39-.9,1.28-1.53,2.32-1.53h.44c.6,0,1.09-.49,1.09-1.09v-2.73c0-.6,.49-1.09,1.09-1.09h.91c.6,0,1.08-.48,1.08-1.08v-14.73c0-1.5,.43-2.98,1.24-4.25l1.54-2.42c.39-.61,.59-1.32,.59-2.04v-69.86c0-.6,.49-1.09,1.09-1.09h1.56c.6,0,1.09,.49,1.09,1.09Z"/>
      <path class="cls-18" d="M839.02,813.17h-244.67c-.05,0-.1,0-.15,0l-4.75,.41-88.14,7.71c-.98,.09-1.71,.95-1.62,1.94l.11,1.19c.09,.98,.95,1.71,1.94,1.62l92.78-8.12c.05,0,.1,0,.16,0h171.04c.99,0,1.79,.8,1.79,1.79v33.71c0,.99,.8,1.79,1.79,1.79h14.47c.99,0,1.79,.8,1.79,1.79s.8,1.79,1.79,1.79h3.23c.99,0,1.79-.8,1.79-1.79v-11.4c0-.99,.8-1.79,1.79-1.79h43.06c.99,0,1.79-.8,1.79-1.79v-.85c0-.99-.8-1.79-1.79-1.79h-46.47c-.99,0-1.79-.8-1.79-1.79v-17.88c0-.99,.8-1.79,1.79-1.79h48.3c.99,0,1.79-.8,1.79-1.79v-1.19c0-.99-.8-1.79-1.79-1.79Z"/>
      <path class="cls-15" d="M1098.19,438.45c-2.04,0-3.7,1.66-3.7,3.7s1.66,3.7,3.7,3.7,3.7-1.66,3.7-3.7-1.66-3.7-3.7-3.7Z"/>
      <path class="cls-18" d="M1135.76,452.91h-26.31c-4.01,0-7.6,1.79-10.02,4.62-2.82,3.28-6.8,5.34-11.13,5.34h-186.51c-.97,0-1.78,.72-1.9,1.66-.01,.09-.02,.17-.02,.26v2.33c0,1.06,.86,1.92,1.92,1.92h232.01v278.38h-22.57c-.99,0-1.78,.8-1.78,1.78v18.44c0,.98-.8,1.78-1.78,1.78h-28.1c-.99,0-1.78,.8-1.78,1.78v18.44c0,.77-.48,1.42-1.16,1.66-.19,.08-.4,.12-.62,.12h-173.35c-.21,0-.42-.04-.61-.12-.15-.06-.29-.14-.42-.24l-11.58-9.08c-.24-.2-.54-.3-.84-.3h-79.78c-.51,0-.92-.41-.92-.92v-8.72c0-.5-.41-.91-.91-.91h-9.24c-.51,0-.91-.41-.91-.91v-40.23c0-.5,.4-.91,.91-.91h7.89c.5,0,.91,.41,.91,.91v2.18c0,.5,.41,.91,.91,.91h21.1c.51,0,.92,.41,.92,.91v7.01c0,.49,.42,.89,.91,.89h2c.5,0,.91-.4,.92-.89v-7.01c0-.5,.41-.91,.91-.91h1.2c.5,0,.91-.41,.91-.91v-2.18c0-.5-.41-.91-.91-.91h-18.44c-.5,0-.91-.41-.91-.91v-31.37c0-.5,.41-.91,.91-.91h9.16c.5,0,.91,.41,.91,.91v1.79c0,.51,.41,.92,.91,.92h7.46c.5,0,.91-.41,.91-.92v-1.79c0-.5,.41-.91,.91-.91h22.47c.51,0,.92,.41,.92,.91v44.05s0,.1,.02,.15c.06,.43,.43,.76,.89,.76h2.01c.45,0,.82-.33,.89-.76,.02-.05,.02-.1,.02-.15v-30.9c0-.5,.4-.91,.91-.91h8c.51,0,.92,.41,.92,.91v13.11c0,.51,.41,.92,.92,.92h15.65c.51,0,.92-.41,.92-.92v-17.24c0-.5-.41-.91-.92-.91h-25.49c-.51,0-.91-.41-.91-.91v-55.37c0-.5,.4-.91,.91-.91h2.87c.36,0,.67-.21,.82-.52,.06-.12,.09-.25,.09-.39v-35.69c0-.82,.66-1.48,1.48-1.48h7.02c.82,0,1.49-.67,1.49-1.49v-.66c0-.8-.6-1.54-1.4-1.56-.85-.02-1.57-.61-1.57-1.46v-49.02c.01-.08,.01-.16,.02-.25l2.68-16.97c.07-.42-.26-.81-.69-.81h-2.46c-.06,0-.11,.01-.17,.02-.27,.07-.48,.29-.52,.57l-2.66,16.82c-.01,.12-.02,.24-.03,.36v49.26c0,.82-.66,1.48-1.48,1.48h-2.14c-.82,0-1.48-.66-1.48-1.48v-8.38c0-.82-.66-1.48-1.48-1.48h-3.51c-.82,0-1.48-.67-1.48-1.48v-2.06c0-.82-.66-1.48-1.48-1.48h-11.28c-.82,0-1.48-.66-1.48-1.48v-3.36c0-.82,.66-1.48,1.48-1.48h5.18c.82,0,1.49-.67,1.49-1.49v-2.13c0-.82-.66-1.48-1.48-1.48h-9.19c-.82,0-1.48,.66-1.48,1.48v8.46c0,.82-.66,1.48-1.48,1.48h-.9c-.82,0-1.48,.66-1.48,1.48v12.31h-48.38c-.71,0-1.28-.57-1.28-1.28v-14.93c0-.71,.57-1.28,1.28-1.28h6.46c.71,0,1.28-.57,1.28-1.27v-1.15c0-.71-.57-1.28-1.28-1.28h-41.21c-.7,0-1.28,.58-1.28,1.28v33.78c0,.7,.57,1.27,1.27,1.27h11.14c.7,0,1.27,.57,1.27,1.28v24.73h-26.45c-.5,0-.91,.41-.91,.91v22.92c0,.51-.41,.91-.91,.91h-18.01c-.5,0-.91,.41-.91,.92v20.14c0,.48-.36,.87-.82,.91-.03,.01-.06,.01-.09,.01-.51,0-.92,.41-.92,.91v1.75c0,.5,.41,.91,.92,.91,.03,0,.06,0,.09,0,.46,.04,.82,.43,.82,.91v8.28c0,.5,.41,.91,.91,.91h8.22c.51,0,.92,.41,.92,.91v7.07h-38.16c-.5,0-.91,.41-.91,.91v1.27c0,.5,.41,.91,.91,.91h47.03c.5,0,.91-.41,.91-.91v-3.93c0-.5-.41-.91-.91-.91h-2.34c-.51,0-.92-.41-.92-.91v-3.5c0-.5,.41-.91,.92-.91h6c.5,0,.91-.41,.91-.91v-1.28c0-.51,.41-.91,.91-.91h10.2c.5,0,.91,.4,.91,.91v3.32c0,.51,.41,.91,.91,.91h9.27c.5,0,.91-.4,.91-.91v-3.32c0-.51,.41-.91,.91-.91h6.82c.5,0,.91,.4,.91,.91v25.45c0,.5,.41,.91,.91,.91h8.47c.51,0,.92,.41,.92,.91v40.23c0,.5-.41,.91-.92,.91h-11.28c-.5,0-.91,.41-.91,.91v8.72c0,.51-.41,.92-.91,.92h-71.91c-.5,0-.91,.41-.91,.91v.57c0,.51,.41,.92,.91,.92h186.9c.3,0,.59,.1,.83,.29,1.94,1.55,10.89,8.63,12.96,10.27,.27,.22,.61,.34,.96,.34h177.06c.98,0,1.77-.79,1.77-1.77v-18.45c0-.98,.79-1.78,1.78-1.78h28.1c.98,0,1.78-.8,1.78-1.78v-18.44c0-.98,.79-1.78,1.78-1.78h20.69c.25,0,.48-.05,.69-.14,.22-.09,.41-.22,.57-.38,.16-.16,.29-.35,.38-.57,.09-.21,.14-.44,.14-.69V454.51c0-.88-.72-1.6-1.6-1.6Zm-295.76,195.1v27.24c0,.5-.41,.91-.92,.91h-21.48c-.51,0-.92-.41-.92-.91v-27.24c0-.5,.41-.91,.92-.91h21.48c.4,0,.73,.25,.86,.6,.04,.09,.06,.2,.06,.31Zm0,43.57c0,.5-.41,.91-.92,.91h-21.48c-.51,0-.92-.41-.92-.91v-10.51c0-.5,.41-.91,.92-.91h21.48c.51,0,.92,.41,.92,.91v10.51Zm3.83-81.94h12.86c.82,0,1.48,.66,1.48,1.48v2.85c0,.82,.67,1.48,1.48,1.48h.25c.58,0,1.08-.33,1.32-.81h0c.1-.21,.16-.43,.16-.67v-2.85c0-.82,.66-1.48,1.48-1.48h1.59c.82,0,1.48,.66,1.48,1.48v27.64h-4.69v3.42c0,.51-.41,.92-.92,.92h-15.58c-.5,0-.91-.41-.91-.92v-32.54Zm0,38.37c0-.5,.41-.91,.91-.91h16.5v44.48c0,.5-.41,.91-.92,.91h-15.58c-.5,0-.91-.41-.91-.91v-43.57Zm-23.02-40.65h18.47v.79c0,.54,.29,1.01,.72,1.27v32.76c0,.51-.41,.92-.92,.92h-17.36c-.5,0-.91-.41-.91-.92v-34.82Zm-19.11,0h11.15v44.02c0,.5-.41,.91-.91,.91h-9.33c-.5,0-.91-.41-.91-.91v-44.02Zm-14.63,1.28c0-.71,.57-1.28,1.27-1.28h9.53v44.02c0,.5-.41,.91-.91,.91h-9.89v-43.65Zm-14.69,11.14c0-.71,.58-1.28,1.28-1.28h8.3c.7,0,1.28,.57,1.28,1.28v32.51h-9.94c-.51,0-.92-.41-.92-.91v-31.6Zm2.17-32.63c0-.71,.58-1.28,1.28-1.28h8.68c.71,0,1.28,.57,1.28,1.28v15.72c0,.71-.57,1.28-1.28,1.28s-1.27,.57-1.27,1.28v7.8c0,.7-.58,1.27-1.28,1.27h-6.13c-.7,0-1.28-.57-1.28-1.27v-26.08Zm-7.36,26.08c0,.7-.57,1.27-1.27,1.27h-5.94c-.7,0-1.28-.57-1.28-1.27v-26.08c0-.71,.58-1.28,1.28-1.28h5.94c.7,0,1.27,.57,1.27,1.28v26.08Zm9.41,84.13c0,.5-.41,.91-.91,.91h-29.93c-.5,0-.91-.41-.91-.91v-17.67c0-.51,.41-.92,.91-.92h29.93c.5,0,.91,.41,.91,.92v17.67Zm4.74-4.87c-.5,0-.91-.41-.91-.91v-16.81h-7.13c-.51,0-.92-.41-.92-.91v-16.66c0-.5,.41-.91,.92-.91h38.64c.5,0,.91,.41,.91,.91v34.38c0,.5-.41,.91-.91,.91h-8.52c-.5,0-.91-.41-.91-.91v-2.52c0-.5-.41-.91-.91-.91h-10.94c-.5,0-.91,.41-.91,.91v2.52c0,.5-.41,.91-.92,.91h-7.49Zm210.52-248.61l-1.06-1.21c-.31-.35-.78-.47-1.2-.32-.09,.03-.19,.08-.28,.14l-11.16,7.81c-.25,.18-.54,.27-.85,.27h-35.7c-.82,0-1.48-.66-1.48-1.48v-42.35c0-.97,.92-1.68,1.87-1.43l12.63,3.38,5.07,1.36c.65,.18,1.1,.77,1.1,1.44v3.64c0,.82,.66,1.48,1.48,1.48h1.14c.82,0,1.48-.66,1.48-1.48v-7.41l.14-.49,4.52-15.85c.21-.76-.19-1.54-.93-1.81l-1.19-.42-1.48-.53-1.06-.38-4.03-1.44-.07,.25-4.64,16.3c-.22,.77-1.03,1.23-1.81,1.02l-14.22-3.81-1.8-.48-.44-.12c-.94-.26-1.86,.45-1.86,1.42v47.71c0,.82-.66,1.48-1.48,1.48h-6.6c-.82,0-1.48-.66-1.48-1.48v-8.4c0-.82-.66-1.48-1.48-1.48h-8.66c-.82,0-1.48,.66-1.48,1.48v8.4c0,.82-.66,1.48-1.48,1.48h-22.65c-.73,0-1.35,.53-1.46,1.25l-.19,1.2-.58,3.65h0s-5.43,34.35-5.43,34.35h0s-6.06,38.36-6.06,38.36c-.07,.42,.26,.81,.69,.81h2.46c.34,0,.64-.25,.69-.59l8.92-56.41,.11-.72,1.25-7.94,1.41-8.89c.12-.72,.74-1.25,1.47-1.25h84.54c.31,0,.6-.09,.85-.27l2.37-1.66,9.9-6.93c.55-.38,.64-1.15,.2-1.65Zm109.38-24.66c-.64,.01-1.15-.54-1.15-1.18v-88.58c0-.82-.66-1.48-1.48-1.48h-34.82c-.53,0-1.02,.28-1.29,.74l-.2,.34-4.86,8.43c-.27,.46-.76,.74-1.29,.74h-6.88c-.53,0-1.02-.28-1.29-.74l-3.74-6.47-2.21-3.84-1.01-1.75-3.38-5.84-2.77-4.79c-.41-.71-1.31-.95-2.02-.54l-.74,.43c-.7,.41-.95,1.32-.54,2.02l1.66,2.88,3.46,6,2.7,4.67c.27,.46,.27,1.02,0,1.48l-4.48,7.77h-.95v31.67c0,.82,.66,1.48,1.48,1.48h2.27c.82,0,1.48-.66,1.48-1.48v-1.47c0-.82,.66-1.48,1.48-1.48h15.68c.82,0,1.48,.66,1.48,1.48v24.04c0,.48-.24,.94-.63,1.21l-60.97,42.69c-.18,.13-.31,.31-.37,.5-.13,.33-.08,.7,.16,1l1.14,1.38c.34,.41,.94,.49,1.38,.18l62.75-43.91c1.28-.9,2.81-1.38,4.38-1.38h29.11c.82,0,1.48,.66,1.48,1.48v30.15c0,.82,.66,1.48,1.48,1.48h.81c.09,0,.18-.01,.27-.02,.05-.01,.1-.01,.15-.03h.01c.14-.03,.28-.07,.42-.13l1.53-.67,1.33-.58c.79-.35,1.25-1.12,1.25-1.93v-3.71c0-1.25-1.02-2.26-2.27-2.24Zm-38.94-82.48l1.83-3.19,.58-1c.27-.46,.76-.74,1.29-.74h28.78c.82,0,1.48,.66,1.48,1.48v41.63c0,.82-.66,1.48-1.48,1.48h-29.98c-.82,0-1.48-.66-1.48-1.48v-5.61c0-.13,.02-.25,.07-.37,.15-.41,.55-.71,1.01-.71h0c.59,0,1.08-.49,1.08-1.09v-19.13c0-.82-.66-1.48-1.48-1.48h-.23c-.82,0-1.48-.66-1.48-1.48v-6.82h-.86l.86-1.49Zm-23.11,8.31v-4.88c0-.26,.07-.52,.2-.74l1.36-2.36c.57-.99,1.99-.99,2.57,0l2.26,3.92c.13,.22,.2,.48,.2,.74v3.32c0,.82-.66,1.48-1.48,1.48h-3.63c-.82,0-1.48-.66-1.48-1.48Z"/>
      <path class="cls-15" d="M1078.19,257.75h1.1c.46,0,.84-.38,.84-.84v-17.22c0-.46-.38-.84-.84-.84h-17.22c-.46,0-.84,.38-.84,.84v17.22c0,.46,.38,.84,.84,.84h1.32c.46,0,.84-.38,.84-.84v-13.2c0-.46,.38-.84,.84-.84h11.44c.46,0,.84,.38,.84,.84v13.2c0,.46,.38,.84,.84,.84Z"/>
      <path class="cls-18" d="M1033.16,237h2.55c.54,0,.97,.43,.99,.96l.21,7.37c.02,.54,.47,.97,1.01,.96l1.67-.04c.55-.01,.99-.48,.98-1.03l-.2-7.21c-.02-.56,.43-1.02,.99-1.02h5.8c.54,0,.98,.43,.99,.96l.2,7.1c.02,.54,.47,.97,1.01,.96l1.68-.04c.55-.01,.98-.47,.97-1.02l-.19-6.96c-.02-.56,.43-1.02,.99-1.02h1.42c.55,0,.99-.44,.99-.99v-10.24c0-.55,.44-.99,.99-.99h6.61c.55,0,.99-.44,.99-.99v-5.85c0-.55,.44-.99,.99-.99h3.03c.55,0,.99,.44,.99,.99v5.85c0,.55,.44,.99,.99,.99h8.36c.55,0,.99-.44,.99-.99v-8.65c0-.55,.44-.99,.99-.99h41.4c.55,0,.99-.44,.99-.99v-2.17c0-.55-.44-.99-.99-.99h-23.14c-.55,0-.99-.44-.99-.99v-30.51c0-.55-.44-.99-.99-.99h-3.51c-.55,0-.99,.44-.99,.99v19.78c0,.55-.44,.99-.99,.99h-9.51c-.55,0-.99-.44-.99-.99v-9.25c0-.55-.44-.99-.99-.99h-7.47c-.55,0-.99,.44-.99,.99v11.17c0,.55,.44,.99,.99,.99h2.74c.55,0,.99,.44,.99,.99v6.83c0,.55-.44,.99-.99,.99h-14.17c-.55,0-.99-.44-.99-.99v-18.19c0-.55-.44-.99-.99-.99h-1.46c-.55,0-.99,.44-.99,.99v18.19c0,.55-.44,.99-.99,.99h-5.68c-.55,0-.99,.44-.99,.99v9.06c0,.55-.44,.99-.99,.99h-14.3c-.55,0-.99,.44-.99,.99v13.98c0,.55,.44,.99,.99,.99Z"/>
      <path class="cls-15" d="M1108.48,228.28l-9.57,9.56-.56,.56-2.31,6.19-4.54,12.19c-.18,.49,.07,1.03,.55,1.21l1.88,.7c.49,.18,1.03-.07,1.21-.55l6.56-17.58h0s9.52-9.53,9.52-9.53c.37-.37,.37-.96,0-1.33l-1.42-1.42c-.37-.37-.96-.37-1.33,0Z"/>
      <path class="cls-18" d="M1071.38,284.06l-4.23-2.45c-.25-.14-.41-.4-.41-.69l-.12-3.92-.02-.57c0-.45-.39-.81-.84-.8l-16.92,.39c-.45,.01-.83-.35-.84-.8l-.19-6.25-.24-8.3c-.01-.46-.39-.82-.85-.81l-18.16,.53h-.03l-.13-5.61-.25-8.48-.02-.53c-.01-.46-.39-.82-.85-.81l-1.78,.06c-.46,.01-.82,.39-.81,.85l.41,13.79c.01,.46-.35,.84-.81,.85l-21.47,.62c-.46,.01-.82,.39-.81,.85l.44,14.89c.01,.46-.35,.84-.81,.85h0c-.46,.02-.82,.4-.81,.86l.1,3.29c.01,.46,.39,.82,.85,.8h.02c.45,0,.82,.36,.83,.81l.52,17.94c0,.46,.39,.82,.85,.81l43.9-1.27c.46-.01,.82-.39,.81-.85l-.21-6.94c-.01-.46,.35-.84,.81-.85l1.1-.04c.46-.01,.82-.39,.81-.85l-.12-3.77c0-.46,.35-.84,.81-.85l13.43-.38c.15-.01,.3,.03,.43,.11l3.14,1.81c.4,.22,.91,.09,1.13-.31l1.65-2.85c.23-.4,.09-.91-.31-1.13Zm-29.02,12.98c.02,.46-.34,.84-.8,.86l-33.05,.99c-.46,.02-.84-.34-.85-.8l-1-33.05c0-.46,.35-.84,.81-.86l18.1-.54,14.94-.45c.46-.02,.84,.34,.86,.8l.06,2.11,.25,8.25,1.2-.04,.37,12.41-1.2,.04,.31,10.28Z"/>
      <rect class="cls-15" x="1000.13" y="450.57" width="80.94" height="3.82" rx="1.16" ry="1.16"/>
      <path class="cls-9" d="M1137.48,196.31v73.79c0,.15,0,.27,0,.27h0s0-.12,0-.27v-73.79c0-.15,0-.27,0-.27h0s0,.12,0,.27Z"/>
      <path class="cls-9" d="M992.94,309.93h143.83c.42,0,.77,0,.77,0h0s-.34,0-.77,0h-143.83c-.42,0-.77,0-.77,0h0s.34,0,.77,0Z"/>
      <path class="cls-15" d="M1112.13,154.29c-.56,0-1.01,.45-1.01,1.01v.08c0,.56,.45,1.01,1.01,1.01h19.37c1.68,0,3.04,1.36,3.04,3.04v47.45c0,.56,.45,1.01,1.01,1.01h.92c.56,0,1.01-.45,1.01-1.01v-47.09c0-3.04-2.46-5.5-5.5-5.5h-19.85Z"/>
    </g>
    <g id="Sombras">
      <path class="cls-10" d="M762.59,735.29h1.37c1.11,0,2.05-.67,2.45-1.64h4.37c1.65,0,2.98-1.34,2.98-2.99v-24.76c0-1.64-1.33-2.98-2.98-2.98h-4.36c-.4-.96-1.35-1.64-2.46-1.64h-1.37c-1.11,0-2.06,.68-2.46,1.64h-4.36c-1.65,0-2.98,1.34-2.98,2.98v24.76c0,1.65,1.33,2.99,2.98,2.99h4.37c.4,.97,1.34,1.64,2.45,1.64Z"/>
      <path class="cls-10" d="M836.37,727.14h4.37c1.65,0,2.98-1.34,2.98-2.99v-24.76c0-1.64-1.33-2.98-2.98-2.98h-4.36c-.4-.96-1.35-1.64-2.46-1.64h-1.37c-1.11,0-2.06,.68-2.46,1.64h-4.36c-1.65,0-2.98,1.34-2.98,2.98v24.76c0,1.65,1.33,2.99,2.98,2.99h4.37c.4,.97,1.34,1.64,2.45,1.64h1.37c1.11,0,2.05-.67,2.45-1.64Z"/>
      <path class="cls-10" d="M757.65,672.79h1.37c1.11,0,2.05-.67,2.45-1.64h4.37c1.65,0,2.98-1.34,2.98-2.99v-17.26c0-1.64-1.33-2.98-2.98-2.98h-4.36c-.4-.96-1.35-1.64-2.46-1.64h-1.37c-1.11,0-2.06,.68-2.46,1.64h-4.36c-1.65,0-2.98,1.34-2.98,2.98v17.26c0,1.65,1.33,2.99,2.98,2.99h4.37c.4,.97,1.34,1.64,2.45,1.64Z"/>
      <path class="cls-10" d="M764.35,609.62h4.37c.4,.97,1.34,1.64,2.45,1.64h1.37c1.11,0,2.05-.67,2.45-1.64h4.37c1.65,0,2.98-1.34,2.98-2.99v-17.26c0-1.64-1.33-2.98-2.98-2.98h-4.36c-.4-.96-1.35-1.64-2.46-1.64h-1.37c-1.11,0-2.06,.68-2.46,1.64h-4.36c-1.65,0-2.98,1.34-2.98,2.98v17.26c0,1.65,1.33,2.99,2.98,2.99Z"/>
      <path class="cls-10" d="M792.65,622.86h-4.36c-.4-.96-1.35-1.64-2.46-1.64h-1.37c-1.11,0-2.06,.68-2.46,1.64h-4.36c-1.65,0-2.98,1.34-2.98,2.98v19.57c0,1.65,1.33,2.99,2.98,2.99h4.37c.4,.97,1.34,1.64,2.45,1.64h1.37c1.11,0,2.05-.67,2.45-1.64h4.37c1.65,0,2.98-1.34,2.98-2.99v-19.57c0-1.64-1.33-2.98-2.98-2.98Z"/>
      <path class="cls-10" d="M829.08,637.58v-21.81c0-1.64-1.33-2.98-2.98-2.98h-4.36c-.4-.96-1.35-1.64-2.46-1.64h-1.37c-1.11,0-2.06,.68-2.46,1.64h-4.36c-1.65,0-2.98,1.34-2.98,2.98v21.81c0,1.65,1.33,2.99,2.98,2.99h4.37c.4,.97,1.34,1.64,2.45,1.64h1.37c1.11,0,2.05-.67,2.45-1.64h4.37c1.65,0,2.98-1.34,2.98-2.99Z"/>
      <path class="cls-10" d="M834.45,675.2h4.37c.4,.97,1.34,1.64,2.45,1.64h1.37c1.11,0,2.05-.67,2.45-1.64h4.37c1.65,0,2.98-1.34,2.98-2.99v-8.67h0v-8.57c0-.27,.22-.5,.5-.5h.84c1.1,0,2-.9,2-2v-2.29c0-1.11-.9-2-2-2h-8.68c-.4-.96-1.35-1.64-2.46-1.64h-1.37c-1.11,0-2.06,.68-2.46,1.64h-4.36c-1.65,0-2.98,1.34-2.98,2.98v9.1h0v11.95c0,1.65,1.33,2.99,2.98,2.99Z"/>
      <rect class="cls-10" x="848.7" y="612.24" width="13.54" height="29.76" rx="2.09" ry="2.09"/>
      <path class="cls-10" d="M719.77,682.88h-.01c-.27,0-.49-.22-.49-.49v-3.46c0-.82-.66-1.48-1.48-1.48h-12.08c-.82,0-1.49,.67-1.49,1.49v3.45c0,.27-.22,.49-.49,.49-.9,0-1.64,.74-1.64,1.64v15.21c0,.9,.74,1.64,1.64,1.64,.27,0,.49,.22,.49,.49v2.99c0,.82,.67,1.49,1.49,1.49h12.07c.82,0,1.49-.67,1.49-1.49v-2.99c0-.27,.22-.49,.49-.49h.01c.9,0,1.63-.73,1.63-1.63v-15.23c0-.9-.73-1.63-1.63-1.63Z"/>
      <path class="cls-10" d="M852.9,591.54h17.46c1.26,0,2.34-.86,2.71-2.04,.09-.28,.14-.58,.14-.9v-18.04c0-.69-.23-1.32-.61-1.82-.52-.68-1.34-1.12-2.24-1.12h-17.46c-1.57,0-2.85,1.32-2.85,2.94v6.47h3.01v5.1h-3.01v6.47c0,1.62,1.28,2.94,2.85,2.94Z"/>
      <path class="cls-10" d="M826.87,594.73v-22.8c0-.63-.51-1.14-1.14-1.14h-29.49c-.63,0-1.14,.51-1.14,1.14v6.87c0,.63-.51,1.15-1.14,1.15h0c-.63,0-1.14,.51-1.14,1.14v4.48c0,.63,.51,1.15,1.14,1.15h0c.63,0,1.14,.51,1.14,1.14v6.87c0,.63,.51,1.15,1.14,1.15h29.49c.63,0,1.14-.51,1.14-1.15Z"/>
      <path class="cls-10" d="M876.35,704.35h.69c.79,0,1.43,.64,1.43,1.43v7.81c0,4.39,3.56,7.94,7.94,7.94h5.09c.97,0,1.75-.78,1.75-1.75v-19.18c0-.97-.78-1.75-1.75-1.75h-15.15c-.97,0-1.75,.78-1.75,1.75v2c0,.97,.78,1.75,1.75,1.75Z"/>
      <path class="cls-10" d="M789.89,854.09h0c-.7,0-1.27-.57-1.27-1.28v-7.83c0-.7-.57-1.27-1.27-1.27h-23.5c-.7,0-1.27,.57-1.27,1.27v7.83c0,.7-.57,1.28-1.27,1.28h0c-.7,0-1.27,.57-1.27,1.27v26.9c0,.7,.57,1.28,1.27,1.28h28.6c.7,0,1.27-.57,1.27-1.28v-26.9c0-.7-.57-1.27-1.27-1.27Z"/>
      <rect class="cls-10" x="804.61" y="855.28" width="7.83" height="10.21" rx="1.27" ry="1.27"/>
      <path class="cls-10" d="M1080.71,332.38h-15.32c-1.23,0-2.23,1-2.23,2.23v10.79h-28.34v-5.43c0-1.23-1-2.23-2.23-2.23h-5.24c-1.23,0-2.23,1-2.23,2.23v30.89c0,1.23,1,2.23,2.23,2.23h5.24c1.23,0,2.23-1,2.23-2.23v-9.64h28.34v4.66c0,1.23,1,2.23,2.23,2.23h15.32c1.23,0,2.23-1,2.23-2.23v-31.28c0-1.23-1-2.23-2.23-2.23Z"/>
      <rect class="cls-10" x="1029.06" y="318.47" width="13.93" height="6" rx="1.85" ry="1.85"/>
      <path class="cls-10" d="M962.46,366.23c-.19-.7-.9-1.11-1.6-.93l-3.11,.84c-.84,.22-1.65-.41-1.65-1.27v-4.87c0-.73-.59-1.31-1.32-1.31h-10.31c-.72,0-1.31,.58-1.31,1.31v23.97c0,.11-.02,.23-.05,.34l-3.46,12.93-.46,1.72-.15,.56c-.19,.7,.23,1.42,.93,1.61l1.02,.27,15.21,4.08c.7,.19,1.42-.23,1.6-.93,.06-.2,.15-.38,.28-.53h.01c.24-.28,.6-.44,.99-.44,.11,0,.22,.01,.33,.04l.72,.2c.7,.18,1.42-.23,1.6-.93l1.67-6.21c.19-.7-.23-1.42-.93-1.61l-.72-.19c-.7-.19-1.11-.91-.92-1.61l.26-.99c.12-.45,.48-.8,.93-.93l5.43-1.45c.7-.19,1.11-.91,.92-1.61l-5.91-22.06Z"/>
      <path class="cls-10" d="M934.94,426.67h-24.95c-.78,0-1.41,.63-1.41,1.41v12.01c0,.77,.63,1.4,1.41,1.4h9.26c.35,0,.64,.22,.8,.54,.29,.58,.89,.98,1.58,.98h1.67c.69,0,1.29-.4,1.58-.98,.16-.31,.45-.54,.8-.54h9.27c.77,0,1.4-.63,1.4-1.4v-12.01c0-.78-.63-1.41-1.41-1.41Z"/>
      <path class="cls-10" d="M1043.2,294.96l-.25-8.14c-.02-.66,.49-1.2,1.15-1.23h.06c.65-.03,1.16-.58,1.15-1.23l-.3-10.02c-.02-.67-.58-1.19-1.25-1.16-.67,.03-1.23-.49-1.25-1.16l-.25-8.19c-.03-.99-.85-1.76-1.84-1.73l-31.13,.94c-.99,.03-1.76,.85-1.73,1.84l.93,31.14c.03,.99,.85,1.76,1.84,1.73l31.14-.94c.99-.03,1.76-.85,1.73-1.84Z"/>
      <rect class="cls-10" x="1061.26" y="283.93" width="29.57" height="11.85" rx="1.79" ry="1.79" transform="translate(287 1076.82) rotate(-60)"/>
      <rect class="cls-10" x="1080.85" y="266.65" width="25.15" height="3.83" rx=".82" ry=".82" transform="translate(-3.37 14.13) rotate(-.74)"/>
      <rect class="cls-10" x="1062.2" y="255.92" width="43.66" height="3.57" rx=".82" ry=".82" transform="translate(-3.23 13.99) rotate(-.74)"/>
      <rect class="cls-10" x="1132.3" y="162.74" width="3.57" height="43.66" rx=".82" ry=".82"/>
      <rect class="cls-10" x="1116.95" y="160.25" width="3.57" height="43.66" rx=".82" ry=".82"/>
      <rect class="cls-10" x="1099.67" y="165.53" width="13.79" height="39.96" rx="1.79" ry="1.79"/>
      <rect class="cls-10" x="1081.54" y="174.73" width="12.13" height="21.45" rx="1.79" ry="1.79"/>
      <rect class="cls-10" x="1060.61" y="184.17" width="13.02" height="16.98" rx="1.79" ry="1.79"/>
      <rect class="cls-10" x="1069.67" y="216.34" width="10.09" height="23.87" rx="1.79" ry="1.79"/>
      <rect class="cls-10" x="1055.76" y="215.83" width="9.32" height="23.23" rx="1.79" ry="1.79"/>
      <path class="cls-10" d="M1020.27,239.32h13.41c.99,0,1.79-.8,1.79-1.79v-.49c0-.99,.8-1.79,1.79-1.79h9.96c.99,0,1.79-.8,1.79-1.79v-7.81c0-.99-.8-1.79-1.79-1.79h-9.96c-.99,0-1.79-.8-1.79-1.79v-2.18c0-.99-.8-1.79-1.79-1.79h-13.41c-.99,0-1.79,.8-1.79,1.79v17.62c0,.99,.8,1.79,1.79,1.79Z"/>
    </g>
    <g id="Edificios">
      <g>
        <path class="cls-12" d="M772.9,707.02v24.76c0,1.65-1.33,2.99-2.98,2.99h-4.37c-.4,.97-1.34,1.64-2.45,1.64h-1.37c-1.11,0-2.05-.67-2.45-1.64h-4.37c-1.65,0-2.98-1.34-2.98-2.99v-24.76c0-1.64,1.33-2.98,2.98-2.98h4.36c.4-.96,1.35-1.64,2.46-1.64h1.37c1.11,0,2.06,.68,2.46,1.64h4.36c1.65,0,2.98,1.34,2.98,2.98Z"/>
        <path class="cls-12" d="M842.86,700.51v24.76c0,1.65-1.33,2.99-2.98,2.99h-4.37c-.13,.31-.31,.58-.54,.82-.47,.51-1.15,.82-1.91,.82h-1.37c-.76,0-1.44-.31-1.91-.82-.23-.24-.41-.51-.54-.82h-4.37c-1.65,0-2.98-1.34-2.98-2.99v-24.76c0-1.64,1.33-2.98,2.98-2.98h4.36c.4-.96,1.35-1.64,2.46-1.64h1.37c1.11,0,2.06,.68,2.46,1.64h4.36c1.65,0,2.98,1.34,2.98,2.98Z"/>
        <path class="cls-12" d="M756.79,673.91h1.37c1.11,0,2.05-.67,2.45-1.64h4.37c1.65,0,2.98-1.34,2.98-2.99v-17.26c0-1.64-1.33-2.98-2.98-2.98h-4.36c-.4-.96-1.35-1.64-2.46-1.64h-1.37c-1.11,0-2.06,.68-2.46,1.64h-4.36c-1.65,0-2.98,1.34-2.98,2.98v17.26c0,1.65,1.33,2.99,2.98,2.99h4.37c.4,.97,1.34,1.64,2.45,1.64Z"/>
        <path class="cls-12" d="M781.48,590.49v17.26c0,1.65-1.33,2.99-2.98,2.99h-4.37c-.4,.97-1.34,1.64-2.45,1.64h-1.37c-1.11,0-2.05-.67-2.45-1.64h-4.37c-1.65,0-2.98-1.34-2.98-2.99v-17.26c0-1.64,1.33-2.98,2.98-2.98h4.36c.4-.96,1.35-1.64,2.46-1.64h1.37c1.11,0,2.06,.68,2.46,1.64h4.36c1.65,0,2.98,1.34,2.98,2.98Z"/>
        <path class="cls-12" d="M794.77,626.97v19.56c0,1.65-1.33,2.99-2.98,2.99h-4.37c-.09,.22-.2,.42-.35,.6-.48,.64-1.24,1.04-2.1,1.04h-1.37c-.12,0-.24-.01-.36-.03-.95-.12-1.73-.75-2.09-1.61h-4.37c-1.65,0-2.98-1.34-2.98-2.99v-19.56c0-1.64,1.33-2.98,2.98-2.98h4.36c.36-.85,1.15-1.49,2.1-1.61,.12-.02,.24-.03,.36-.03h1.37c.86,0,1.62,.41,2.1,1.04,.15,.18,.27,.38,.36,.6h4.36c1.65,0,2.98,1.34,2.98,2.98Z"/>
        <path class="cls-12" d="M828.22,616.89v21.81c0,1.65-1.33,2.99-2.98,2.99h-4.37s-.04,.08-.06,.12c-.42,.91-1.33,1.52-2.39,1.52h-1.37c-1.11,0-2.05-.67-2.45-1.64h-4.37c-1.65,0-2.98-1.34-2.98-2.99v-21.81c0-1.64,1.33-2.98,2.98-2.98h4.36c.4-.96,1.35-1.64,2.46-1.64h1.37c1.05,0,1.96,.61,2.39,1.5,.03,.04,.05,.09,.07,.14h4.36c1.65,0,2.98,1.34,2.98,2.98Z"/>
        <path class="cls-12" d="M854.92,651.3v2.29c0,1.1-.9,2-2,2h-.84c-.28,0-.5,.22-.5,.5v17.24c0,1.65-1.33,2.99-2.98,2.99h-4.37c-.1,.24-.23,.47-.4,.67-.48,.59-1.22,.97-2.05,.97h-1.37c-1.11,0-2.05-.67-2.45-1.64h-4.37c-.33,0-.64-.05-.94-.16-1.19-.39-2.04-1.51-2.04-2.83v-21.05c0-1.64,1.33-2.98,2.98-2.98h4.36c.34-.82,1.09-1.44,1.99-1.6,.15-.03,.31-.04,.47-.04h1.37c.83,0,1.57,.38,2.05,.97,.17,.2,.31,.43,.41,.67h8.68c1.1,0,2,.89,2,2Z"/>
        <path class="cls-12" d="M861.38,615.45v25.58c0,.27-.05,.52-.14,.76-.28,.69-.91,1.21-1.67,1.31-.09,.01-.18,.02-.28,.02h-9.36c-.1,0-.19,0-.28-.02-1.02-.14-1.81-1.02-1.81-2.07v-25.58c0-1.15,.94-2.09,2.09-2.09h9.36c.86,0,1.6,.52,1.93,1.27h0c.1,.26,.16,.53,.16,.82Z"/>
        <path class="cls-12" d="M720.54,685.63v15.23c0,.9-.73,1.63-1.63,1.63h0c-.27,0-.49,.22-.49,.49v2.99c0,.82-.67,1.49-1.49,1.49h-12.07c-.82,0-1.49-.67-1.49-1.49v-2.99c0-.27-.22-.49-.49-.49-.9,0-1.64-.74-1.64-1.64v-15.21c0-.9,.74-1.64,1.64-1.64,.27,0,.49-.22,.49-.49v-3.45c0-.82,.67-1.49,1.49-1.49h12.08c.82,0,1.48,.66,1.48,1.48v3.46c0,.27,.22,.49,.49,.49h0c.9,0,1.63,.73,1.63,1.63Z"/>
        <path class="cls-12" d="M872.34,571.68v18.04c0,.32-.05,.62-.13,.9-.37,1.18-1.46,2.04-2.71,2.04h-17.46c-1.57,0-2.85-1.32-2.85-2.94v-6.47h3.01v-5.1h-3.01v-6.47c0-1.62,1.28-2.94,2.85-2.94h17.46c.9,0,1.71,.44,2.23,1.12,.38,.5,.61,1.13,.61,1.82Z"/>
        <path class="cls-12" d="M826.01,573.05v22.8c0,.64-.51,1.15-1.14,1.15h-29.5c-.63,0-1.14-.51-1.14-1.15v-6.87c0-.63-.51-1.14-1.14-1.14h-.01c-.63,0-1.14-.51-1.14-1.15v-4.52c.02-.61,.52-1.1,1.14-1.1h.01c.63,0,1.14-.51,1.14-1.15v-6.87c0-.63,.51-1.14,1.14-1.14h29.5c.63,0,1.14,.51,1.14,1.14Z"/>
        <path class="cls-12" d="M892.39,701.73v19.17c0,.76-.48,1.4-1.15,1.63-.19,.08-.39,.12-.6,.12h-5.09c-4.39,0-7.95-3.55-7.95-7.94v-7.8c0-.79-.64-1.44-1.43-1.44h-.69c-.5,0-.96-.21-1.27-.56-.3-.31-.48-.73-.48-1.19v-1.99c0-.97,.79-1.75,1.75-1.75h15.16c.21,0,.41,.04,.6,.12,.67,.23,1.15,.87,1.15,1.63Z"/>
      </g>
      <path class="cls-12" d="M790.3,856.48v26.9c0,.7-.57,1.27-1.27,1.27h-28.6c-.7,0-1.27-.57-1.27-1.27v-26.9c0-.7,.57-1.27,1.27-1.27h0c.7,0,1.27-.57,1.27-1.27v-7.83c0-.7,.57-1.27,1.27-1.27h23.5c.7,0,1.27,.57,1.27,1.27v7.83c0,.7,.57,1.27,1.27,1.27h0c.7,0,1.27,.57,1.27,1.27Z"/>
      <rect class="cls-12" x="803.74" y="856.4" width="7.83" height="10.21" rx="1.27" ry="1.27"/>
      <g>
        <path class="cls-8" d="M842.3,858.46l41.33,24.85c.84,.51,1.12,1.6,.61,2.45l-5.25,8.72c-.37,.61-1.15,.8-1.75,.44l-1.56-.94c-.6-.36-1.39-.17-1.75,.44l-.56,.92c-.36,.6-1.14,.8-1.74,.43l-35.02-21.05c-.6-.36-.8-1.14-.43-1.75l.55-.91c.36-.61,.17-1.39-.43-1.76l-1.67-.99c-.6-.37-.8-1.15-.43-1.75,0,0,3.23-5.36,5.01-8.33,.64-1.06,2.02-1.4,3.08-.76Z"/>
        <path class="cls-8" d="M895.26,867.53l-.62,1.03-1.5,2.48-.69,1.16-1.92,3.18-.69,1.15-1.55,2.58-.74,1.22c-.44,.73-1.38,.96-2.1,.53,0,0-34.61-20.83-42.04-25.35-.78-.47-1.03-1.48-.56-2.25l7.61-12.67c.36-.6,1.14-.8,1.75-.44l42.61,25.63c.6,.36,.8,1.14,.44,1.75Z"/>
        <path class="cls-10" d="M879.49,883.52l-33.45-19.96c-2.06-1.63-3.43-1.29-4.07-.23l-4.64,7.77c-.63,1.06-.29,2.43,.77,3.07l33.98,20.28c1.06,.63,2.43,.29,3.07-.77l4.64-7.77c.38-.65,.47-1.83-.3-2.38Z"/>
        <rect class="cls-12" x="834.29" y="872.39" width="44.04" height="18.42" rx="2.64" ry="2.64" transform="translate(572.73 -314.25) rotate(30.83)"/>
        <circle class="cls-14" cx="880.03" cy="867.01" r="1.84"/>
        <path class="cls-14" d="M886.38,868.95c.9,.47,1.26,1.57,.79,2.48s-1.57,1.26-2.48,.79"/>
        <path class="cls-14" d="M884.7,872.21c-.9-.47-1.26-1.57-.79-2.48s1.57-1.26,2.48-.79"/>
        <path class="cls-14" d="M870.63,887.56h5.19v6.46h-5.19c-1.39,0-2.52-1.13-2.52-2.52v-1.41c0-1.39,1.13-2.52,2.52-2.52Z" transform="translate(577.29 -320.41) rotate(30.71)"/>
        <line class="cls-14" x1="861.44" y1="873.32" x2="851.59" y2="889.89"/>
        <line class="cls-14" x1="884.62" y1="859.28" x2="875.44" y2="874.73"/>
        <line class="cls-11" x1="873.6" y1="853.02" x2="864.14" y2="868.2"/>
        <line class="cls-14" x1="869.9" y1="878.49" x2="860.06" y2="895.07"/>
        <line class="cls-14" x1="852.9" y1="868.34" x2="843.05" y2="884.92"/>
        <circle class="cls-14" cx="856.52" cy="881.61" r="3.93"/>
        <path class="cls-14" d="M839.37,869.2h5.36v6.46h-5.36c-1.42,0-2.57-1.15-2.57-2.57v-1.32c0-1.42,1.15-2.57,2.57-2.57Z" transform="translate(1115.7 2052.45) rotate(-149.17)"/>
        <path class="cls-14" d="M894.44,868.69l-1.5,2.48-.69,1.16-1.92,3.18-.69,1.15-1.55,2.58-1.68-.97-.52-.31c-1.6-1.05-2.69-2.81-2.79-4.87-.05-1.16,.21-2.26,.73-3.21,.07-.14,.16-.28,.25-.42,1.04-1.61,2.81-2.7,4.87-2.81,1.13-.06,2.2,.2,3.14,.69l2.35,1.35Z"/>
        <path class="cls-19" d="M892.94,871.17l-.69,1.16-1.92,3.18-.69,1.15-5.12-2.96c-.3-.17-.4-.54-.23-.84l.37-.63v-.03s1.85-3.18,1.85-3.18l.37-.64c.17-.29,.54-.39,.84-.22l5.22,3.01Z"/>
        <path class="cls-14" d="M873.7,865.58c-.89-.49-1.22-1.61-.73-2.5s1.61-1.22,2.5-.73"/>
        <path class="cls-14" d="M875.46,862.36c.89,.49,1.22,1.61,.73,2.5s-1.61,1.22-2.5,.73"/>
        <path class="cls-14" d="M865.63,865.63l1.56-2.44,.72-1.14,2-3.13,.72-1.13,1.61-2.54,1.66,1.01,.51,.32c1.57,1.09,2.62,2.88,2.67,4.94,.02,1.16-.27,2.25-.81,3.19-.07,.14-.17,.28-.26,.41-1.08,1.58-2.88,2.63-4.94,2.69-1.13,.03-2.19-.25-3.12-.77l-2.32-1.41Z"/>
        <path class="cls-19" d="M867.2,863.19l.72-1.14,2-3.13,.72-1.13,5.05,3.09c.3,.18,.39,.55,.21,.85l-.39,.62v.03s-1.93,3.13-1.93,3.13l-.39,.63c-.18,.29-.55,.38-.85,.2l-5.14-3.14Z"/>
        <circle class="cls-14" cx="857.62" cy="853.4" r="1.84"/>
        <path class="cls-14" d="M864.14,855.32c.89,.48,1.23,1.6,.75,2.49s-1.6,1.23-2.49,.75"/>
        <path class="cls-14" d="M862.39,858.56c-.89-.48-1.23-1.6-.75-2.49s1.6-1.23,2.49-.75"/>
        <line class="cls-14" x1="862.35" y1="845.76" x2="852.9" y2="861.05"/>
        <path class="cls-14" d="M872.2,855.21l-1.54,2.45-.71,1.15-1.98,3.15-.71,1.14-1.6,2.55-1.66-1-.51-.32c-1.58-1.08-2.64-2.86-2.7-4.92-.03-1.16,.25-2.26,.79-3.2,.07-.14,.16-.28,.26-.42,1.07-1.59,2.86-2.65,4.92-2.72,1.13-.04,2.2,.24,3.13,.75l2.33,1.39Z"/>
        <path class="cls-19" d="M870.66,857.66l-.71,1.15-1.98,3.15-.71,1.14-5.07-3.05c-.3-.18-.39-.55-.22-.84l.38-.62v-.03s1.91-3.15,1.91-3.15l.38-.63c.18-.29,.55-.38,.84-.21l5.17,3.1Z"/>
        <path class="cls-14" d="M851.32,851.93c-.89-.48-1.23-1.6-.75-2.49s1.6-1.23,2.49-.75"/>
        <path class="cls-14" d="M853.07,848.69c.89,.48,1.23,1.6,.75,2.49s-1.6,1.23-2.49,.75"/>
        <path class="cls-14" d="M843.26,852.04l1.54-2.45,.71-1.15,1.98-3.15,.71-1.14,1.6-2.55,1.66,1,.51,.32c1.58,1.08,2.64,2.86,2.7,4.92,.03,1.16-.25,2.26-.79,3.2-.07,.14-.16,.28-.26,.42-1.07,1.59-2.86,2.65-4.92,2.72-1.13,.04-2.2-.24-3.13-.75l-2.33-1.39Z"/>
        <path class="cls-19" d="M844.8,849.59l.71-1.15,1.98-3.15,.71-1.14,5.07,3.05c.3,.18,.39,.55,.22,.84l-.38,.62v.03s-1.91,3.15-1.91,3.15l-.38,.63c-.18,.29-.55,.38-.84,.21l-5.17-3.1Z"/>
      </g>
      <rect class="cls-12" x="1062.3" y="333.51" width="19.79" height="35.74" rx="2.23" ry="2.23"/>
      <rect class="cls-12" x="1024.25" y="338.87" width="9.7" height="35.36" rx="2.23" ry="2.23"/>
      <rect class="cls-12" x="1028.2" y="319.59" width="13.93" height="6" rx="1.85" ry="1.85"/>
      <rect class="cls-12" x="1033.96" y="346.53" width="28.34" height="15.83"/>
      <path class="cls-12" d="M966.59,391.02l-5.43,1.45c-.45,.13-.81,.48-.93,.93l-.26,.99c-.19,.7,.22,1.42,.92,1.61l.72,.19c.7,.19,1.12,.91,.93,1.61l-1.67,6.21c-.18,.7-.9,1.11-1.6,.93l-.72-.2c-.11-.03-.22-.04-.33-.04-.39,0-.75,.16-.99,.44h-.01c-.13,.15-.22,.33-.28,.53-.18,.7-.9,1.12-1.6,.93l-15.21-4.08-1.02-.27c-.7-.19-1.12-.91-.93-1.61l.15-.56,.46-1.72,3.46-12.93c.03-.11,.05-.23,.05-.34v-23.97c0-.73,.59-1.31,1.31-1.31h10.31c.73,0,1.32,.58,1.32,1.31v4.87c0,.86,.81,1.49,1.65,1.27l3.11-.84c.7-.18,1.41,.23,1.6,.93l5.91,22.06c.19,.7-.22,1.42-.92,1.61Z"/>
      <path class="cls-12" d="M935.49,429.2v12.01c0,.77-.63,1.4-1.4,1.4h-9.27c-.35,0-.64,.22-.8,.54-.29,.58-.89,.98-1.58,.98h-1.67c-.69,0-1.29-.4-1.58-.98-.16-.31-.45-.54-.8-.54h-9.26c-.78,0-1.41-.63-1.41-1.4v-12.01c0-.78,.63-1.41,1.41-1.41h24.95c.78,0,1.41,.63,1.41,1.41Z"/>
      <path class="cls-12" d="M1042.08,287.94l.25,8.14c.03,.99-.75,1.81-1.73,1.84l-31.14,.94c-.99,.03-1.81-.75-1.84-1.73l-.93-31.14c-.03-.99,.75-1.81,1.73-1.84l31.13-.94c.99-.03,1.81,.75,1.84,1.73l.25,8.19c.02,.67,.58,1.19,1.25,1.16h0c.67-.03,1.23,.49,1.25,1.16l.3,10.02c.02,.65-.49,1.2-1.15,1.23h-.06c-.65,.03-1.17,.58-1.15,1.24Z"/>
      <rect class="cls-12" x="1069.26" y="276.2" width="11.85" height="29.57" rx="1.79" ry="1.79" transform="translate(289.54 -498.61) rotate(30)"/>
      <rect class="cls-12" x="1079.98" y="267.77" width="25.15" height="3.83" rx=".82" ry=".82" transform="translate(-3.39 14.12) rotate(-.74)"/>
      <rect class="cls-12" x="1061.33" y="257.04" width="43.66" height="3.57" rx=".82" ry=".82" transform="translate(-3.25 14) rotate(-.74)"/>
      <rect class="cls-12" x="1111.39" y="183.9" width="43.66" height="3.57" rx=".82" ry=".82" transform="translate(947.53 1318.91) rotate(-90)"/>
      <rect class="cls-12" x="1096.04" y="181.41" width="43.66" height="3.57" rx=".82" ry=".82" transform="translate(1301.07 -934.68) rotate(90)"/>
      <rect class="cls-12" x="1098.81" y="166.65" width="13.79" height="39.96" rx="1.79" ry="1.79"/>
      <rect class="cls-12" x="1080.68" y="175.85" width="12.13" height="21.45" rx="1.79" ry="1.79"/>
      <rect class="cls-12" x="1059.74" y="185.29" width="13.02" height="16.98" rx="1.79" ry="1.79"/>
      <rect class="cls-12" x="1068.81" y="217.46" width="10.09" height="23.87" rx="1.79" ry="1.79"/>
      <rect class="cls-12" x="1054.89" y="216.95" width="9.32" height="23.23" rx="1.79" ry="1.79"/>
      <path class="cls-12" d="M1048.13,226.79v7.81c0,.99-.8,1.79-1.79,1.79h-9.96c-.99,0-1.79,.8-1.79,1.79v.49c0,.99-.8,1.79-1.79,1.79h-13.41c-.99,0-1.79-.8-1.79-1.79v-17.62c0-.99,.8-1.79,1.79-1.79h13.41c.99,0,1.79,.8,1.79,1.79v2.18c0,.99,.8,1.79,1.79,1.79h9.96c.99,0,1.79,.8,1.79,1.79Z"/>
    </g>
    <rect class="cls-12" x="832.26" y="944.3" width="4.57" height="7.06" rx=".82" ry=".82" transform="translate(-420.92 1084.42) rotate(-54.85)"/>
    <rect class="cls-12" x="850.24" y="956.29" width="4.57" height="7.06" rx=".82" ry=".82" transform="translate(-423.09 1104.21) rotate(-54.85)"/>
    <path id="Pista" class="cls-13" d="M900.48,977.53l-19.49-13.14-4.67-3.16-.07-.04-52.94-35.7-23.96-16.16-4.34,6.44,4.77,3.22c-20.24,1.07-36.31,17.82-36.31,38.33,0,4.28,.7,8.4,2,12.24,2.37,7.06,6.75,13.21,12.45,17.77l5.12,3.45,51.72,34.88,1.77,1.2,.15,.1c3.37,2.14,7.11,3.77,11.09,4.78,3.02,.76,6.19,1.17,9.45,1.17,21.2,0,38.38-17.19,38.38-38.38,0-4.29-.7-8.42-2-12.27l2.54,1.71,4.34-6.44Zm-43.26,47.61c-5.97,0-11.54-1.71-16.25-4.66l-.07-.05-.18-.11-1.41-.96h-.01s-.06-.05-.06-.05l-18.36-12.38-16.76-11.3-17-11.47c-1.62-.89-3.15-1.92-4.57-3.07-6.91-5.62-11.32-14.18-11.32-23.77,0-16.91,13.71-30.62,30.62-30.62,6.34,0,12.23,1.93,17.12,5.23l19.2,12.95,16.8,11.33,17.24,11.62h0c1.46,.82,2.84,1.76,4.14,2.8,7,5.61,11.48,14.23,11.48,23.9,0,16.91-13.71,30.61-30.62,30.61Z"/>
    <g id="Cancha">
      <rect class="cls-9" x="792.8" y="953.99" width="72.27" height="44.1" transform="translate(674.5 -295.16) rotate(33.41)"/>
      <circle class="cls-9" cx="828.94" cy="976.04" r="7.24"/>
      <path class="cls-9" d="M845.11,993.51c-.23-.71-.36-1.47-.36-2.26,0-3.79,2.91-6.9,6.61-7.21"/>
      <rect class="cls-9" x="847.16" y="977.12" width="13.02" height="30.47" transform="translate(687.57 -306.08) rotate(33.41)"/>
      <line class="cls-9" x1="841.08" y1="957.63" x2="816.79" y2="994.45"/>
      <path class="cls-9" d="M812.75,958.56c.23,.71,.36,1.47,.36,2.26,0,3.79-2.91,6.9-6.61,7.21"/>
      <rect class="cls-9" x="797.69" y="944.48" width="13.02" height="30.47" transform="translate(946.97 2203.66) rotate(-146.59)"/>
    </g>
    <g>
      <path class="cls-17" d="M777.77,552.61c-.19-.47-.19-.99-.08-1.48,.28-1.2,.38-2.83-.67-3.9-.53-.53-1.28-.86-2.24-.96-.52-.05-1.09-.05-1.67,.03-.38,.05-.76-.02-1.1-.2-1.21-.67-2.43-1.1-3.44-1.21-1.19-.12-1.84,.24-2.18,.57-1.09,1.08-.8,3.51,.12,5.68,.11,.25,.14,.53,.07,.79-.3,1.19-.56,3.11,.55,4.24,.52,.52,1.24,.82,2.2,.92,.51,.05,1.06,.05,1.62-.01,.4-.04,.8,.08,1.15,.28,1.24,.71,2.5,1.17,3.53,1.28,1.19,.12,1.84-.25,2.18-.59,1.11-1.08,.8-3.36-.05-5.44Zm-1.88,3.4c-.18,.19-.52,.25-.95,.2-.75-.08-1.78-.48-2.78-1.12-.33-.21-.73-.27-1.11-.21-.5,.08-.98,.09-1.37,.05-.43-.04-.75-.15-.9-.3-.28-.28-.3-1.25,0-2.31,.11-.37,.1-.78-.07-1.13-.74-1.62-.88-3.19-.38-3.67,.18-.18,.51-.24,.94-.19,.71,.07,1.69,.44,2.66,1.03,.33,.2,.73,.26,1.11,.2,.52-.09,1.02-.11,1.42-.07s.76,.15,.92,.32c.33,.33,.34,1.31,.02,2.38-.11,.37-.1,.78,.06,1.13,.76,1.62,.94,3.2,.43,3.71Z"/>
      <path class="cls-17" d="M775.89,556.01c-.18,.19-.52,.25-.95,.2-.75-.08-1.78-.48-2.78-1.12-.33-.21-.73-.27-1.11-.21-.5,.08-.98,.09-1.37,.05-.43-.04-.75-.15-.9-.3-.28-.28-.3-1.25,0-2.31,.11-.37,.1-.78-.07-1.13-.74-1.62-.88-3.19-.38-3.67,.18-.18,.51-.24,.94-.19,.71,.07,1.69,.44,2.66,1.03,.33,.2,.73,.26,1.11,.2,.52-.09,1.02-.11,1.42-.07s.76,.15,.92,.32c.33,.33,.34,1.31,.02,2.38-.11,.37-.1,.78,.06,1.13,.76,1.62,.94,3.2,.43,3.71Z"/>
    </g>
    <g>
      <path class="cls-17" d="M869.67,599.75l-.85,.85-4.56-4.56,1.02-1.02c.07,.03,.15,.04,.23,.04h.88c1.43,.4,2.64,1.67,3.04,3.14v1.01c0,.15,.05,.3,.13,.41,.03,.05,.07,.09,.11,.13Z"/>
      <path class="cls-17" d="M870.92,597.79v1.42c0,.41-.33,.74-.74,.74-.05,0-.1-.01-.15-.01-.13-.03-.26-.1-.36-.19-.04-.04-.08-.08-.11-.13-.08-.11-.13-.26-.13-.41v-1.01c-.4-1.47-1.61-2.74-3.04-3.14h-.88c-.08,0-.16,0-.23-.04-.07-.02-.13-.06-.19-.1-.06-.04-.11-.09-.15-.14-.08-.09-.13-.19-.16-.31h0c0-.06,0-.11,0-.16v-.04c.02-.39,.34-.7,.74-.7h1.25c.11,0,.23,.01,.34,.02,1.95,.19,3.67,2.04,3.81,4.04v.16Z"/>
    </g>
  </g>
  <g id="Capa_16" data-name="Capa 16">
    <text class="cls-3" transform="translate(837.21 667.07)"><tspan x="0" y="0">E</tspan></text>
    <text class="cls-4" transform="translate(814.09 632.06)"><tspan x="0" y="0">F</tspan></text>
    <text class="cls-3" transform="translate(780.29 641.01)"><tspan x="0" y="0">D</tspan></text>
    <text class="cls-5" transform="translate(767.19 603.51)"><tspan x="0" y="0">P</tspan></text>
    <text class="cls-3" transform="translate(917.69 439.66)"><tspan x="0" y="0">R</tspan></text>
    <text class="cls-3" transform="translate(1066.97 355.73)"><tspan x="0" y="0">M</tspan></text>
    <text class="cls-6" transform="translate(1025.29 360.97)"><tspan x="0" y="0">O</tspan></text>
    <text class="cls-3" transform="translate(753.3 664.92)"><tspan x="0" y="0">C</tspan></text>
    <text class="cls-3" transform="translate(758.09 723.66)"><tspan x="0" y="0">G</tspan></text>
    <text class="cls-3" transform="translate(828.59 717.15)"><tspan x="0" y="0">B</tspan></text>
    <path class="cls-7" d="M715.47,691.75l-1.34,4.33c-.07,.22-.27,.36-.5,.36h-5.5c-.23,0-.43-.15-.49-.36l-1.34-4.34c-.15-.49,.41-.88,.81-.57l2.16,1.65,1.14-2.9c.17-.44,.79-.44,.96,0l1.17,2.9,2.11-1.63c.4-.31,.96,.08,.81,.56Z"/>
    <g>
      <path class="cls-21" d="M852.33,630.53c-.19,0-.35-.12-.4-.29l-.12-.43c-.08-.02-.15-.04-.22-.07l-.41,.34-.17,.03c-.09,0-.18-.03-.25-.08l-.45-.32c-.15-.11-.21-.3-.15-.46l.16-.42c-.05-.06-.09-.12-.14-.19,0,0-.45,.03-.45,.03-.19,0-.34-.11-.4-.28l-.17-.52c-.06-.18,0-.37,.15-.46l.37-.24s0-.2,0-.24l-.37-.24c-.15-.1-.21-.29-.15-.46l.17-.52c.06-.17,.21-.29,.38-.29l.46,.02c.04-.07,.09-.13,.14-.19l-.16-.41c-.06-.16,0-.36,.15-.47l.44-.33c.07-.05,.16-.08,.25-.08h.09l.15,.08,.34,.28c.07-.03,.15-.05,.23-.07l.11-.43c.05-.17,.21-.29,.4-.29h.55c.19,0,.35,.12,.4,.28l.12,.43c.08,.02,.15,.04,.23,.07l.41-.34,.17-.03c.09,0,.18,.03,.25,.08l.45,.32c.15,.11,.21,.3,.15,.46l-.16,.42c.05,.06,.1,.12,.14,.19,0,0,.44-.03,.45-.03,.19,0,.34,.11,.4,.29l.17,.52c.06,.18,0,.37-.15,.47l-.37,.24s0,.2,0,.24l.37,.24c.15,.1,.21,.29,.15,.46l-.17,.52c-.06,.17-.21,.29-.38,.29l-.46-.02c-.04,.07-.09,.13-.14,.19l.16,.42c.06,.17,0,.36-.15,.47l-.44,.32c-.07,.05-.16,.08-.25,.08h-.09l-.15-.08-.35-.28c-.07,.03-.15,.05-.22,.07l-.11,.43c-.04,.17-.21,.29-.39,.29h-.55s0,0,0,0Zm.26-4.77c-.69,0-1.25,.56-1.25,1.25s.56,1.25,1.25,1.25,1.25-.56,1.25-1.25-.56-1.25-1.25-1.25Z"/>
      <path class="cls-25" d="M852.85,623.75c.07,0,.14,.04,.15,.1l.15,.57c.16,.04,.32,.09,.47,.15l.46-.37s.05-.03,.08-.03c.03,0,.07,.01,.1,.03l.45,.32c.06,.04,.09,.12,.06,.17l-.21,.55c.11,.12,.21,.26,.29,.4l.59-.03s0,0,0,0c.06,0,.12,.05,.14,.11l.17,.52c.02,.07,0,.14-.05,.18l-.49,.32c0,.09,.01,.17,.01,.26,0,.08,0,.16-.01,.24l.5,.32c.05,.03,.07,.11,.05,.18l-.17,.52c-.02,.07-.08,.11-.14,.11,0,0,0,0,0,0l-.59-.03c-.08,.14-.18,.28-.29,.4l.22,.55c.02,.06,0,.13-.06,.17l-.44,.32s-.07,.03-.1,.03c-.03,0-.06,0-.08-.03l-.46-.37c-.15,.06-.31,.12-.47,.15l-.15,.58c-.02,.06-.08,.1-.15,.1h-.55s0,0,0,0c-.07,0-.14-.04-.15-.1l-.16-.57c-.16-.04-.32-.09-.47-.15l-.46,.37s-.05,.03-.08,.03c-.03,0-.07-.01-.1-.03l-.45-.32c-.06-.04-.09-.12-.06-.17l.21-.55c-.11-.12-.21-.26-.29-.4l-.59,.03s0,0,0,0c-.06,0-.12-.05-.14-.11l-.17-.52c-.02-.07,0-.14,.05-.18l.49-.32c0-.09-.01-.17-.01-.26,0-.08,0-.16,.01-.24l-.5-.32c-.05-.03-.07-.11-.05-.18l.17-.52c.02-.07,.08-.11,.14-.11,0,0,0,0,0,0l.59,.03c.08-.14,.18-.28,.29-.4l-.21-.55c-.02-.06,0-.13,.06-.17l.44-.32s.07-.03,.1-.03c.03,0,.06,0,.08,.03l.46,.37c.15-.07,.31-.12,.47-.15l.15-.57c.02-.06,.08-.1,.15-.1h.55s0,0,0,0m-.26,4.76c.83,0,1.5-.67,1.5-1.5s-.67-1.5-1.5-1.5-1.5,.67-1.5,1.5,.67,1.5,1.5,1.5m.26-5.26h-.55c-.3,0-.56,.2-.63,.48l-.07,.27-.21-.17c-.11-.09-.25-.14-.4-.14s-.28,.05-.4,.13l-.44,.32c-.24,.18-.34,.49-.23,.76l.1,.26h-.28s0-.01,0-.01c-.31,0-.56,.19-.64,.46l-.17,.52c-.09,.29,.01,.59,.26,.75l.23,.15-.23,.15c-.24,.16-.35,.47-.25,.75l.17,.52c.09,.27,.34,.46,.61,.46l.31-.02-.1,.26c-.1,.27,0,.58,.24,.76l.45,.32c.11,.08,.25,.13,.39,.13,.15,0,.29-.05,.4-.14l.21-.17,.07,.27c.08,.28,.34,.47,.64,.47h.55c.3,0,.56-.2,.63-.48l.07-.27,.21,.17c.11,.09,.25,.14,.4,.14s.28-.05,.4-.13l.44-.33c.24-.18,.34-.49,.23-.76l-.1-.26h.28s0,.01,0,.01c.31,0,.56-.19,.64-.46l.17-.52c.09-.29-.01-.59-.26-.75l-.23-.15,.23-.15c.24-.16,.35-.47,.25-.75l-.17-.52c-.09-.27-.34-.46-.61-.46l-.31,.02,.1-.26c.1-.27,0-.58-.24-.76l-.45-.32c-.11-.08-.25-.13-.39-.13-.15,0-.29,.05-.4,.14l-.21,.17-.07-.27c-.08-.28-.34-.47-.64-.47h0Zm-.26,4.76c-.55,0-1-.45-1-1s.45-1,1-1,1,.45,1,1-.45,1-1,1h0Z"/>
    </g>
    <g>
      <path class="cls-21" d="M856.98,634.1c-.17,0-.32-.11-.37-.27l-.09-.32s-.09-.03-.13-.04l-.33,.27-.16,.02c-.08,0-.16-.03-.23-.08l-.36-.26c-.14-.1-.2-.28-.14-.43l.12-.31s-.06-.07-.08-.11c0,0-.33,.02-.33,.02-.18,0-.32-.11-.37-.26l-.14-.42c-.05-.17,0-.34,.14-.43l.28-.18s0-.12,0-.14l-.28-.18c-.14-.09-.2-.26-.15-.43l.14-.42c.05-.16,.19-.27,.35-.27l.35,.02s.05-.08,.08-.11l-.12-.31c-.06-.15,0-.33,.14-.43l.43-.31,.17-.03c.08,0,.16,.03,.22,.08l.26,.21s.09-.03,.14-.04l.08-.32c.04-.16,.19-.27,.37-.27h.44c.17,0,.32,.11,.37,.26l.09,.32s.09,.03,.14,.04l.33-.27,.16-.02c.08,0,.16,.03,.23,.08l.36,.26c.14,.1,.2,.28,.14,.43l-.12,.31s.06,.07,.08,.11c0,0,.33-.02,.33-.02,.18,0,.32,.11,.37,.26l.14,.42c.05,.16,0,.34-.14,.43l-.28,.18s0,.12,0,.14l.28,.18c.14,.09,.2,.26,.15,.43l-.14,.42c-.05,.16-.19,.27-.35,.27l-.35-.02s-.05,.08-.08,.11l.12,.31c.06,.15,0,.33-.14,.43l-.42,.31-.16,.03c-.08,0-.16-.03-.22-.08l-.26-.21s-.09,.03-.13,.04l-.09,.33c-.04,.16-.19,.27-.37,.27h-.44s0,0,0,0Zm.21-3.86c-.53,0-.96,.43-.96,.96s.43,.96,.96,.96,.96-.43,.96-.96-.43-.96-.96-.96Z"/>
      <path class="cls-25" d="M857.4,628.55c.06,0,.11,.03,.12,.08l.12,.46c.13,.03,.26,.07,.38,.12l.37-.3s.04-.02,.07-.02c.03,0,.06,0,.08,.03l.36,.26s.07,.09,.05,.14l-.17,.45c.09,.1,.17,.21,.24,.32l.48-.03s0,0,0,0c.05,0,.1,.04,.11,.09l.14,.42c.02,.06,0,.12-.04,.14l-.4,.26c0,.07,.01,.14,.01,.21,0,.07,0,.13,0,.19l.4,.26s.06,.09,.04,.14l-.14,.42c-.02,.05-.06,.09-.11,.09,0,0,0,0,0,0l-.48-.02c-.07,.12-.15,.22-.23,.32l.17,.45s0,.11-.05,.14l-.36,.26s-.06,.03-.08,.03c-.02,0-.05,0-.07-.02l-.37-.3c-.12,.05-.25,.09-.38,.12l-.12,.47s-.06,.08-.12,.08h-.45s0,0,0,0c-.06,0-.11-.03-.12-.08l-.13-.46c-.13-.03-.26-.07-.38-.12l-.37,.3s-.04,.02-.07,.02c-.03,0-.06,0-.08-.03l-.36-.26s-.07-.09-.05-.14l.17-.45c-.09-.1-.17-.21-.24-.32l-.48,.03s0,0,0,0c-.05,0-.1-.04-.11-.09l-.14-.42c-.02-.06,0-.12,.04-.14l.4-.26c0-.07-.01-.14-.01-.21,0-.07,0-.13,0-.19l-.4-.26s-.06-.09-.04-.14l.14-.42c.02-.05,.06-.09,.11-.09,0,0,0,0,0,0l.48,.02c.07-.12,.15-.23,.23-.33l-.17-.45s0-.11,.05-.14l.36-.26s.06-.03,.08-.03c.02,0,.05,0,.07,.02l.37,.3c.12-.05,.25-.1,.38-.13l.12-.46s.06-.08,.12-.08h.45s0,0,0,0m-.21,3.86c.67,0,1.21-.54,1.21-1.21s-.54-1.21-1.21-1.21-1.21,.54-1.21,1.21,.54,1.21,1.21,1.21m.21-4.36h-.45c-.29,0-.54,.19-.61,.46l-.02,.07-.06-.05c-.11-.09-.24-.13-.38-.13s-.27,.04-.38,.12l-.36,.26c-.23,.17-.32,.47-.22,.73l.03,.07h-.08s0,0,0,0c-.3,0-.53,.18-.62,.44l-.14,.42c-.09,.27,.01,.57,.25,.72l.06,.04-.06,.04c-.23,.15-.33,.45-.24,.72l.14,.42c.09,.26,.32,.44,.59,.44h.11s-.03,.07-.03,.07c-.1,.26,0,.56,.23,.72l.36,.26c.11,.08,.24,.12,.37,.12,.14,0,.28-.05,.38-.14l.06-.05,.02,.07c.07,.27,.32,.45,.61,.45h.45c.29,0,.54-.19,.61-.46l.02-.07,.06,.05c.11,.09,.24,.13,.38,.13s.27-.04,.38-.12l.36-.26c.23-.17,.32-.47,.22-.73l-.03-.07h.08s0,0,0,0c.3,0,.53-.18,.62-.44l.14-.42c.09-.27-.01-.57-.25-.72l-.06-.04,.06-.04c.23-.15,.33-.45,.24-.72l-.14-.42c-.09-.26-.32-.44-.59-.44h-.11s.03-.07,.03-.07c.1-.26,0-.56-.23-.72l-.36-.26c-.11-.08-.24-.12-.37-.12-.14,0-.28,.05-.38,.14l-.06,.05-.02-.07c-.07-.27-.32-.45-.61-.45h0Zm-.21,3.86c-.39,0-.71-.32-.71-.71s.32-.71,.71-.71,.71,.32,.71,.71-.32,.71-.71,.71h0Z"/>
    </g>
    <g>
      <g>
        <path class="cls-21" d="M883.11,715.94c-.99,0-1.76-1.08-1.76-2.46,0-.86,.31-1.64,.83-2.08,.05-.05,.09-.15,.09-.26v-3.62c0-.47,.38-.85,.85-.85s.85,.38,.85,.85v3.62c0,.11,.03,.21,.09,.26,.52,.45,.83,1.23,.83,2.08,0,1.38-.77,2.46-1.76,2.46Z"/>
        <path class="cls-25" d="M883.11,707.04c.26,0,.47,.21,.47,.47v3.62c0,.2,.07,.41,.22,.54,.42,.36,.7,1.03,.7,1.8,0,1.15-.62,2.09-1.39,2.09s-1.39-.93-1.39-2.09c0-.77,.28-1.44,.7-1.8,.15-.13,.22-.34,.22-.54v-3.62c0-.26,.21-.47,.47-.47m0-.75c-.67,0-1.22,.55-1.22,1.22v3.62s0,0,0,.01c-.58,.52-.92,1.39-.92,2.33,0,1.59,.94,2.84,2.14,2.84s2.14-1.25,2.14-2.84c0-.94-.34-1.81-.91-2.33v-3.63c0-.67-.55-1.22-1.23-1.22h0Z"/>
      </g>
      <g>
        <path class="cls-21" d="M887.52,715.94c-.47,0-.85-.38-.85-.85v-3.71c0-.18-.16-.29-.22-.33-.31-.19-.69-.56-.71-1.26v-2.12c0-.38,.32-.71,.71-.71,.21,0,.41,.1,.54,.25,.13-.15,.33-.25,.54-.25s.42,.1,.54,.25c.13-.15,.32-.25,.54-.25,.38,0,.71,.32,.71,.71v2.11c0,.52-.26,.99-.71,1.27-.07,.04-.23,.17-.23,.35v3.7c0,.47-.38,.85-.85,.85Z"/>
        <path class="cls-25" d="M888.6,707.33c.18,0,.33,.15,.33,.33v2.11c0,.41-.21,.75-.53,.95-.24,.15-.41,.39-.41,.67v3.7c0,.26-.21,.47-.47,.47s-.47-.21-.47-.47v-3.71c0-.28-.17-.51-.41-.65-.31-.18-.51-.49-.53-.95v-2.11c0-.18,.15-.33,.33-.33s.33,.15,.33,.33v1.43c0,.12,.09,.21,.2,.21,.12,0,.21-.09,.21-.21v-1.43c0-.19,.15-.33,.33-.33,.19,0,.33,.14,.33,.33v1.43c0,.12,.09,.21,.2,.21,.12,0,.21-.09,.21-.21v-1.43c0-.18,.15-.33,.33-.33m0-.75c-.19,0-.38,.05-.54,.14-.16-.09-.34-.14-.54-.14s-.38,.05-.54,.14c-.16-.09-.34-.14-.54-.14-.6,0-1.08,.49-1.08,1.08v2.11c.03,.71,.34,1.27,.9,1.6,.03,.02,.05,.04,.05,.04v3.68c0,.67,.54,1.22,1.21,1.22s1.22-.55,1.22-1.22v-3.7s0,0,0,0c0,0,.02-.02,.06-.04,.55-.35,.88-.94,.88-1.59v-2.11c0-.6-.49-1.08-1.08-1.08h0Z"/>
      </g>
    </g>
    <g>
      <g>
        <rect class="cls-21" x="805.89" y="578.95" width="8.78" height="11" rx=".93" ry=".93"/>
        <path class="cls-25" d="M813.75,590.45h-6.93c-.79,0-1.43-.64-1.43-1.43v-9.15c0-.79,.64-1.43,1.43-1.43h6.93c.79,0,1.43,.64,1.43,1.43v9.15c0,.79-.64,1.43-1.43,1.43Zm-6.93-11c-.23,0-.43,.19-.43,.43v9.15c0,.23,.19,.43,.43,.43h6.93c.23,0,.43-.19,.43-.43v-9.15c0-.23-.19-.43-.43-.43h-6.93Z"/>
      </g>
      <g>
        <path class="cls-21" d="M814.68,579.92v7.4c0,.49-.39,.88-.88,.88h-7.03c-.48,0-.87,.39-.87,.87v-8.84c0-.71,.58-1.29,1.29-1.29h6.52c.54,0,.97,.44,.97,.97Z"/>
        <path class="cls-25" d="M805.89,589.58c-.28,0-.5-.22-.5-.5v-8.84c0-.99,.8-1.79,1.79-1.79h6.52c.81,0,1.47,.66,1.47,1.47v7.4c0,.76-.62,1.38-1.38,1.38h-7.03c-.21,0-.37,.17-.37,.37,0,.28-.22,.5-.5,.5Zm1.29-10.13c-.44,0-.79,.36-.79,.79v7.51c.12-.03,.24-.05,.37-.05h7.03c.21,0,.38-.17,.38-.38v-7.4c0-.26-.21-.47-.47-.47h-6.52Z"/>
      </g>
      <path class="cls-25" d="M812.25,581.22h-3.93c-.23,0-.41,.18-.41,.41s.18,.41,.41,.41h3.93c.23,0,.41-.18,.41-.41s-.18-.41-.41-.41h0Z"/>
    </g>
    <g>
      <g>
        <path class="cls-21" d="M861.7,583.53v1.26h-1.61v-1.26s0-.09,.01-.12h1.58s.01,.08,.01,.12Z"/>
        <path class="cls-25" d="M861.7,585.17h-1.61c-.21,0-.38-.17-.38-.38v-1.26c0-.07,0-.15,.03-.25,.05-.15,.19-.25,.35-.25h1.58c.16,0,.3,.1,.35,.25,.03,.09,.03,.18,.03,.25v1.26c0,.21-.17,.38-.38,.38Zm-1.23-.75h.86v-.63h-.87v.63Zm1.23-.89h0s0,0,0,0Z"/>
      </g>
      <g>
        <path class="cls-21" d="M863.24,585.44c0,.36-.36,.65-.81,.65h-3.08c-.45,0-.8-.29-.8-.65s.35-.65,.8-.65h3.08c.45,0,.81,.29,.81,.65Z"/>
        <path class="cls-25" d="M862.43,586.47h-3.08c-.66,0-1.17-.45-1.17-1.03s.52-1.03,1.17-1.03h3.08c.66,0,1.18,.45,1.18,1.03s-.52,1.03-1.18,1.03Zm-3.08-1.3c-.23,0-.42,.13-.42,.28s.19,.28,.42,.28h3.08c.26,0,.43-.15,.43-.28,0-.15-.2-.28-.43-.28h-3.08Z"/>
      </g>
      <g>
        <path class="cls-21" d="M866.29,577.99v4.15h-10.8v-4.15c0-.72,.62-1.28,1.38-1.28h8.04c.76,0,1.37,.57,1.37,1.28Z"/>
        <path class="cls-25" d="M866.29,582.51h-10.8c-.21,0-.38-.17-.38-.38v-4.15c0-.91,.79-1.66,1.76-1.66h8.04c.98,0,1.75,.73,1.75,1.66v4.15c0,.21-.17,.38-.38,.38Zm-10.42-.75h10.05v-3.78c0-.51-.44-.91-1-.91h-8.04c-.56,0-1.01,.41-1.01,.91v3.78Z"/>
      </g>
      <g>
        <path class="cls-21" d="M866.29,582.14c-.01,.71-.61,1.27-1.37,1.27h-8.04c-.76,0-1.37-.57-1.38-1.27h10.8Z"/>
        <path class="cls-25" d="M864.92,583.79h-8.04c-.97,0-1.74-.72-1.76-1.64,0-.1,.04-.2,.11-.27,.07-.07,.17-.11,.27-.11h10.8c.1,0,.2,.04,.27,.11,.07,.07,.11,.17,.11,.27-.02,.92-.78,1.64-1.75,1.64Zm-8.96-1.27c.16,.31,.51,.52,.91,.52h8.04c.4,0,.74-.21,.9-.52h-9.86Z"/>
      </g>
    </g>
    <g>
      <rect class="cls-21" x="1006.9" y="314.57" width="15.65" height="15.78" rx="5.94" ry="5.94"/>
      <path class="cls-25" d="M1016.61,330.86h-3.78c-3.55,0-6.44-2.89-6.44-6.44v-3.91c0-3.55,2.89-6.44,6.44-6.44h3.78c3.55,0,6.44,2.89,6.44,6.44v3.91c0,3.55-2.89,6.44-6.44,6.44Zm-3.78-15.78c-3,0-5.44,2.44-5.44,5.44v3.91c0,3,2.44,5.44,5.44,5.44h3.78c3,0,5.44-2.44,5.44-5.44v-3.91c0-3-2.44-5.44-5.44-5.44h-3.78Z"/>
    </g>
    <g>
      <path class="cls-21" d="M1012.7,327.1c-.99,0-1.76-1.08-1.76-2.46,0-.86,.31-1.64,.83-2.09,.06-.05,.09-.15,.09-.26v-3.62c0-.47,.38-.85,.85-.85s.85,.38,.85,.85v3.62c0,.11,.03,.21,.09,.26,.52,.45,.83,1.23,.83,2.09,0,1.38-.77,2.46-1.76,2.46Z"/>
      <path class="cls-25" d="M1012.7,318.21c.26,0,.47,.21,.47,.47v3.62c0,.2,.07,.41,.22,.54,.42,.36,.7,1.03,.7,1.8,0,1.15-.62,2.09-1.39,2.09s-1.39-.93-1.39-2.09c0-.77,.28-1.44,.7-1.8,.15-.13,.22-.34,.22-.54v-3.62c0-.26,.21-.47,.47-.47m0-.75c-.67,0-1.22,.55-1.22,1.22v3.62s0,0,0,.01c-.58,.52-.92,1.39-.92,2.33,0,1.59,.94,2.84,2.14,2.84s2.14-1.25,2.14-2.84c0-.94-.34-1.81-.91-2.33v-3.63c0-.67-.55-1.22-1.23-1.22h0Z"/>
    </g>
    <g>
      <path class="cls-21" d="M1017,327.1c-.47,0-.85-.38-.85-.85v-3.71c0-.18-.16-.29-.22-.33-.31-.19-.69-.56-.71-1.26v-2.12c0-.38,.32-.71,.71-.71,.21,0,.41,.1,.54,.25,.13-.15,.32-.25,.54-.25s.42,.1,.54,.25c.13-.15,.32-.25,.54-.25,.38,0,.71,.32,.71,.71v2.11c0,.52-.26,.99-.71,1.27-.07,.04-.23,.17-.23,.35v3.7c0,.47-.38,.85-.85,.85Z"/>
      <path class="cls-25" d="M1018.08,318.49c.18,0,.33,.15,.33,.33v2.11c0,.41-.21,.75-.53,.95-.24,.15-.41,.39-.41,.67v3.7c0,.26-.21,.47-.47,.47s-.47-.21-.47-.47v-3.71c0-.28-.17-.51-.41-.65-.31-.18-.51-.49-.53-.95v-2.11c0-.18,.15-.33,.33-.33s.33,.15,.33,.33v1.43c0,.12,.09,.21,.2,.21,.12,0,.21-.09,.21-.21v-1.43c0-.19,.15-.33,.33-.33,.19,0,.33,.14,.33,.33v1.43c0,.12,.09,.21,.2,.21,.12,0,.21-.09,.21-.21v-1.43c0-.18,.15-.33,.33-.33m0-.75c-.19,0-.38,.05-.54,.14-.16-.09-.34-.14-.54-.14s-.38,.05-.54,.14c-.16-.09-.34-.14-.54-.14-.6,0-1.08,.49-1.08,1.08v2.11c.03,.71,.34,1.27,.9,1.6,.03,.02,.05,.04,.05,.04v3.68c0,.67,.54,1.22,1.21,1.22s1.22-.55,1.22-1.22v-3.7s0,0,0,0c0,0,.02-.02,.06-.04,.55-.35,.88-.94,.88-1.59v-2.11c0-.6-.49-1.08-1.08-1.08h0Z"/>
    </g>
    <g>
      <path class="cls-21" d="M1022.01,319.98l3.61,2.15c.39,.23,.37,.81-.03,1.02l-3.57,1.82"/>
      <path class="cls-25" d="M1022.01,325.35c-.14,0-.27-.07-.33-.21-.09-.18-.02-.41,.16-.5l3.57-1.82c.1-.05,.11-.14,.11-.18,0-.04,0-.13-.1-.19l-3.61-2.15c-.18-.11-.24-.34-.13-.51,.11-.18,.34-.24,.51-.13l3.61,2.15c.3,.18,.48,.51,.47,.85-.01,.35-.21,.66-.52,.82l-3.57,1.82c-.05,.03-.11,.04-.17,.04Z"/>
    </g>
    <path d="M956.33,381.53h-2.83v7.33h-1.36v-7.33h-2.84v-1.19h7.03v1.19Z"/>
    <g>
      <path d="M1081.59,303.09c0-.52,.09-1.03,.28-1.53,.19-.5,.46-.96,.82-1.37,.36-.41,.8-.74,1.32-.98s1.11-.37,1.78-.37c.78,0,1.46,.17,2.03,.52,.57,.34,1,.79,1.28,1.34l-1.27,.88c-.14-.32-.33-.57-.56-.76s-.48-.32-.74-.4c-.26-.08-.52-.11-.78-.11-.42,0-.78,.08-1.09,.25-.31,.17-.57,.39-.77,.66s-.36,.58-.46,.91c-.1,.34-.15,.67-.15,1.01,0,.38,.06,.74,.18,1.09,.12,.35,.29,.66,.51,.92,.22,.27,.48,.48,.79,.64,.31,.16,.65,.23,1.01,.23,.26,0,.53-.04,.8-.13,.27-.09,.52-.23,.76-.42,.23-.19,.41-.44,.54-.74l1.36,.78c-.17,.42-.44,.78-.82,1.08s-.81,.52-1.28,.67c-.47,.15-.94,.23-1.4,.23-.61,0-1.16-.13-1.67-.38s-.94-.59-1.3-1.01c-.36-.42-.65-.89-.85-1.42-.2-.52-.31-1.05-.31-1.59Z"/>
      <path d="M1090.34,307.42v-8.52h3.77c.39,0,.75,.08,1.09,.24,.33,.16,.62,.38,.86,.65,.24,.27,.43,.58,.56,.91,.13,.34,.2,.68,.2,1.03s-.06,.71-.19,1.04-.3,.62-.53,.87c-.23,.25-.5,.44-.82,.58l1.94,3.2h-1.82l-1.75-2.86h-1.66v2.86h-1.66Zm1.66-4.31h2.08c.21,0,.39-.06,.55-.19s.29-.29,.38-.5c.1-.21,.14-.44,.14-.7,0-.27-.06-.51-.17-.71-.11-.2-.25-.37-.43-.49-.17-.12-.36-.18-.56-.18h-2v2.76Z"/>
      <path d="M1101.91,307.48c-.62,0-1.19-.12-1.7-.36-.51-.24-.94-.57-1.31-.98-.36-.41-.65-.88-.85-1.39s-.3-1.05-.3-1.59,.11-1.11,.32-1.63c.21-.52,.5-.98,.88-1.38,.37-.4,.81-.72,1.32-.96,.51-.24,1.07-.35,1.67-.35s1.18,.12,1.69,.37,.94,.58,1.3,1c.36,.42,.64,.88,.84,1.39,.2,.51,.3,1.04,.3,1.58s-.1,1.1-.31,1.61-.5,.98-.87,1.38c-.37,.4-.81,.72-1.32,.95-.51,.23-1.06,.35-1.66,.35Zm-2.47-4.32c0,.37,.06,.72,.17,1.07s.27,.65,.49,.92,.47,.48,.78,.64c.31,.16,.66,.23,1.05,.23s.76-.08,1.07-.25c.31-.16,.57-.38,.78-.66s.37-.58,.47-.92c.11-.34,.16-.68,.16-1.03,0-.37-.06-.72-.17-1.06-.12-.34-.28-.64-.49-.91s-.47-.48-.78-.64c-.31-.16-.65-.23-1.04-.23-.41,0-.77,.08-1.07,.25s-.57,.38-.77,.65c-.21,.27-.37,.58-.47,.91-.11,.34-.16,.68-.16,1.03Z"/>
      <path d="M1107.34,307.42v-8.52h3.1c.93,0,1.7,.19,2.33,.57,.62,.38,1.09,.89,1.4,1.54,.31,.64,.47,1.36,.47,2.14,0,.86-.17,1.62-.52,2.26-.34,.64-.83,1.14-1.46,1.49s-1.37,.53-2.23,.53h-3.1Zm5.63-4.27c0-.55-.1-1.04-.3-1.46s-.49-.75-.86-.98-.83-.35-1.37-.35h-1.44v5.62h1.44c.54,0,1-.12,1.38-.37s.66-.58,.86-1.01c.2-.43,.29-.91,.29-1.45Z"/>
      <path d="M1121.85,305.97v1.45h-5.92v-8.52h5.81v1.45h-4.15v2.05h3.59v1.34h-3.59v2.22h4.26Z"/>
    </g>
    <g>
      <g>
        <path class="cls-21" d="M1120.54,777.13h4.61c1.24,0,2.24,1,2.24,2.24v14.23h-9.09v-14.23c0-1.24,1-2.24,2.24-2.24Z"/>
        <path class="cls-25" d="M1127.4,794.12h-9.09c-.28,0-.52-.23-.52-.52v-14.23c0-1.52,1.24-2.76,2.76-2.76h4.61c1.52,0,2.76,1.24,2.76,2.76v14.23c0,.28-.23,.52-.52,.52Zm-8.58-1.03h8.06v-13.72c0-.95-.77-1.72-1.72-1.72h-4.61c-.95,0-1.72,.77-1.72,1.72v13.72Z"/>
      </g>
      <g>
        <path class="cls-21" d="M1118.01,791.09h9.68c.32,0,.58,.26,.58,.58v1.93h-10.83v-1.93c0-.32,.26-.58,.58-.58Z"/>
        <path class="cls-25" d="M1128.27,794.12h-10.83c-.28,0-.52-.23-.52-.52v-1.93c0-.6,.49-1.09,1.09-1.09h9.68c.6,0,1.09,.49,1.09,1.09v1.93c0,.28-.23,.52-.52,.52Zm-10.3-1.03h9.78l-.06-1.48h-9.68l-.04,1.48Z"/>
      </g>
      <g>
        <path class="cls-25" d="M1130.75,791.4c-1.1,0-1.99-.89-1.99-1.99v-2.98c0-.38-.31-.69-.69-.69h-.67c-.28,0-.52-.23-.52-.52s.23-.52,.52-.52h.67c.95,0,1.72,.77,1.72,1.72v2.98c0,.53,.43,.96,.96,.96s.96-.43,.96-.96v-7.3c0-.28,.23-.52,.52-.52s.52,.23,.52,.52v7.3c0,1.1-.89,1.99-1.99,1.99Z"/>
        <g>
          <path class="cls-21" d="M1133.01,781.43v1.43c0,.25-.25,.42-.54,.42h-.65c-.31,0-.53-.17-.53-.42v-1.18c0-.14-.05-.27-.15-.37l-1.05-1.05c-.29-.29-.36-.63-.17-.8l.38-.4c.1-.08,.23-.11,.36-.08,.15,.02,.32,.11,.46,.25l1.62,1.62c.11,.11,.21,.27,.23,.4,.04,.06,.04,.13,.04,.17Z"/>
          <path class="cls-25" d="M1132.48,783.8h-.65c-.6,0-1.05-.4-1.05-.94v-1.18l-1.05-1.05c-.28-.28-.44-.62-.43-.94,0-.24,.1-.45,.28-.61l.35-.37c.29-.24,.59-.3,.88-.22,.19,.02,.47,.17,.68,.38l1.62,1.62c.09,.09,.28,.31,.36,.6,.06,.15,.06,.28,.06,.34v1.43c0,.53-.46,.94-1.05,.94Zm-2.13-4.04s.05,.08,.11,.14l1.05,1.05c.19,.19,.3,.45,.3,.73v1.18l.67-.09,.02-1.32s-.03-.08-.03-.12c0,0-.03-.05-.08-.11l-1.62-1.62c-.07-.07-.14-.1-.16-.1l-.25,.26Zm2.15,1.67h0s0,0,0,0Zm-2.2-1.62h0s0,0,0,0Z"/>
        </g>
      </g>
      <path class="cls-25" d="M1124.48,783.1h-3.26c-.87,0-1.58-.71-1.58-1.58v-1.42c0-.87,.71-1.58,1.58-1.58h3.26c.87,0,1.58,.71,1.58,1.58v1.42c0,.87-.71,1.58-1.58,1.58Zm-3.26-3.55c-.31,0-.55,.25-.55,.55v1.42c0,.31,.25,.55,.55,.55h3.26c.3,0,.55-.25,.55-.55v-1.42c0-.3-.25-.55-.55-.55h-3.26Z"/>
    </g>
    <g>
      <g>
        <path class="cls-21" d="M1165.65,822.23h4.61c1.24,0,2.24,1,2.24,2.24v14.23h-9.09v-14.23c0-1.24,1-2.24,2.24-2.24Z"/>
        <path class="cls-25" d="M1172.51,839.22h-9.09c-.28,0-.52-.23-.52-.52v-14.23c0-1.52,1.24-2.76,2.76-2.76h4.61c1.52,0,2.76,1.24,2.76,2.76v14.23c0,.28-.23,.52-.52,.52Zm-8.58-1.03h8.06v-13.72c0-.95-.77-1.72-1.72-1.72h-4.61c-.95,0-1.72,.77-1.72,1.72v13.72Z"/>
      </g>
      <g>
        <path class="cls-21" d="M1163.12,836.2h9.68c.32,0,.58,.26,.58,.58v1.93h-10.83v-1.93c0-.32,.26-.58,.58-.58Z"/>
        <path class="cls-25" d="M1173.37,839.22h-10.83c-.28,0-.52-.23-.52-.52v-1.93c0-.6,.49-1.09,1.09-1.09h9.68c.6,0,1.09,.49,1.09,1.09v1.93c0,.28-.23,.52-.52,.52Zm-10.3-1.03h9.78l-.06-1.48h-9.68l-.04,1.48Z"/>
      </g>
      <g>
        <path class="cls-25" d="M1175.86,836.51c-1.1,0-1.99-.89-1.99-1.99v-2.98c0-.38-.31-.69-.69-.69h-.67c-.28,0-.52-.23-.52-.52s.23-.52,.52-.52h.67c.95,0,1.72,.77,1.72,1.72v2.98c0,.53,.43,.96,.96,.96s.96-.43,.96-.96v-7.3c0-.28,.23-.52,.52-.52s.52,.23,.52,.52v7.3c0,1.1-.89,1.99-1.99,1.99Z"/>
        <g>
          <path class="cls-21" d="M1178.12,826.53v1.43c0,.25-.25,.42-.54,.42h-.65c-.31,0-.53-.17-.53-.42v-1.18c0-.14-.05-.27-.15-.37l-1.05-1.05c-.29-.29-.36-.63-.17-.8l.38-.4c.1-.08,.23-.11,.36-.08,.15,.02,.32,.11,.46,.25l1.62,1.62c.11,.11,.21,.27,.23,.4,.04,.06,.04,.13,.04,.17Z"/>
          <path class="cls-25" d="M1177.58,828.9h-.65c-.6,0-1.05-.4-1.05-.94v-1.18l-1.05-1.05c-.28-.28-.44-.62-.43-.94,0-.24,.1-.45,.28-.61l.35-.37c.29-.24,.59-.3,.88-.22,.19,.02,.47,.17,.68,.38l1.62,1.62c.09,.09,.28,.31,.36,.6,.06,.15,.06,.28,.06,.34v1.43c0,.53-.46,.94-1.05,.94Zm-2.13-4.04s.05,.08,.11,.14l1.05,1.05c.19,.19,.3,.45,.3,.73v1.18l.67-.09,.02-1.32s-.03-.08-.03-.12c0,0-.03-.05-.08-.11l-1.62-1.62c-.07-.07-.14-.1-.16-.1l-.25,.26Zm2.15,1.67h0s0,0,0,0Zm-2.2-1.62h0s0,0,0,0Z"/>
        </g>
      </g>
      <path class="cls-25" d="M1169.59,828.21h-3.26c-.87,0-1.58-.71-1.58-1.58v-1.42c0-.87,.71-1.58,1.58-1.58h3.26c.87,0,1.58,.71,1.58,1.58v1.42c0,.87-.71,1.58-1.58,1.58Zm-3.26-3.55c-.31,0-.55,.25-.55,.55v1.42c0,.31,.25,.55,.55,.55h3.26c.3,0,.55-.25,.55-.55v-1.42c0-.3-.25-.55-.55-.55h-3.26Z"/>
    </g>
    <g>
      <g>
        <ellipse class="cls-2" cx="1093.7" cy="559.43" rx="5.14" ry="4.16" transform="translate(-75.24 937.21) rotate(-45)"/>
        <path class="cls-25" d="M1092.72,564.59c-1.14,0-2.21-.39-3.01-1.18-1.82-1.82-1.5-5.08,.69-7.28,2.2-2.2,5.46-2.51,7.28-.69,1.81,1.82,1.5,5.08-.69,7.28-1.24,1.24-2.81,1.88-4.27,1.88Zm1.96-9.34c-1.2,0-2.52,.54-3.56,1.59-1.81,1.81-2.12,4.44-.69,5.86,1.42,1.43,4.06,1.12,5.86-.69s2.12-4.44,.69-5.87c-.6-.6-1.42-.89-2.3-.89Z"/>
      </g>
      <g>
        <ellipse class="cls-22" cx="1093.7" cy="548.28" rx="4.16" ry="5.14" transform="translate(-67.35 933.95) rotate(-45)"/>
        <path class="cls-25" d="M1094.68,553.44c-1.46,0-3.04-.64-4.27-1.88-2.2-2.2-2.51-5.46-.69-7.28s5.08-1.5,7.28,.69h0c2.2,2.2,2.51,5.46,.69,7.28-.79,.79-1.87,1.18-3.01,1.18Zm-1.96-9.34c-.88,0-1.7,.29-2.3,.89-1.43,1.43-1.11,4.06,.69,5.86,1.81,1.81,4.44,2.12,5.87,.69s1.11-4.06-.69-5.86h0c-1.04-1.04-2.36-1.59-3.56-1.59Z"/>
      </g>
      <g>
        <ellipse class="cls-24" cx="1104.85" cy="548.28" rx="5.14" ry="4.16" transform="translate(-64.09 941.83) rotate(-45)"/>
        <path class="cls-25" d="M1103.87,553.44c-1.14,0-2.21-.39-3.01-1.18-1.81-1.81-1.5-5.08,.69-7.28,2.2-2.2,5.46-2.51,7.28-.69s1.5,5.08-.69,7.28h0c-1.24,1.24-2.81,1.88-4.27,1.88Zm1.96-9.34c-1.2,0-2.52,.54-3.56,1.59-1.81,1.81-2.12,4.44-.69,5.86,1.43,1.43,4.06,1.11,5.87-.69h0c1.81-1.81,2.12-4.44,.69-5.86-.6-.6-1.42-.89-2.3-.89Z"/>
      </g>
      <g>
        <ellipse class="cls-1" cx="1104.85" cy="559.43" rx="4.16" ry="5.14" transform="translate(-71.97 945.1) rotate(-45)"/>
        <path class="cls-25" d="M1105.83,564.59c-1.46,0-3.04-.64-4.27-1.88h0c-2.2-2.2-2.51-5.46-.69-7.28,1.82-1.81,5.08-1.5,7.28,.69s2.51,5.46,.69,7.28c-.79,.79-1.87,1.18-3.01,1.18Zm-3.57-2.58c1.81,1.81,4.44,2.12,5.86,.69s1.11-4.06-.69-5.86c-1.81-1.81-4.44-2.12-5.87-.69s-1.11,4.06,.69,5.87h0Z"/>
      </g>
    </g>
    <g>
      <path d="M1070.29,573.85c0-.52,.09-1.03,.28-1.53,.18-.5,.45-.96,.81-1.37,.36-.41,.79-.74,1.3-.98,.51-.24,1.09-.37,1.74-.37,.77,0,1.43,.17,1.99,.52,.56,.35,.98,.79,1.25,1.34l-1.06,.71c-.16-.34-.36-.62-.61-.82s-.51-.34-.79-.42-.56-.12-.83-.12c-.45,0-.84,.09-1.18,.27-.34,.18-.62,.42-.85,.71-.23,.3-.4,.63-.52,1s-.17,.74-.17,1.1c0,.41,.07,.8,.2,1.18,.14,.38,.33,.72,.57,1.01,.24,.29,.53,.52,.87,.69s.7,.25,1.1,.25c.27,0,.56-.05,.85-.14s.57-.25,.82-.45,.45-.47,.59-.81l1.12,.64c-.18,.42-.45,.78-.82,1.08s-.79,.52-1.25,.67-.91,.23-1.36,.23c-.6,0-1.15-.13-1.64-.38s-.92-.59-1.28-1.01c-.36-.42-.64-.89-.84-1.42-.2-.52-.3-1.05-.3-1.59Z"/>
      <path d="M1081.38,569.66h1.27l3.31,8.52h-1.42l-.83-2.32h-3.41l-.84,2.32h-1.43l3.34-8.52Zm1.98,5.21l-1.34-3.73-1.35,3.73h2.69Z"/>
      <path d="M1087.02,578.18v-8.52h5.68v1.19h-4.33v2.54h3.62v1.12h-3.62v3.67h-1.34Z"/>
      <path d="M1093.97,578.18v-8.52h5.68v1.19h-4.33v2.54h3.62v1.12h-3.62v3.67h-1.34Z"/>
      <path d="M1106.76,576.99v1.19h-5.84v-8.52h5.74v1.19h-4.39v2.42h3.8v1.12h-3.8v2.6h4.5Z"/>
      <path d="M1109.5,572.15v6.02h-1.34v-8.52h1.1l4.82,6.16v-6.14h1.36v8.51h-1.18l-4.76-6.02Z"/>
      <path d="M1117.36,578.18v-8.52h1.34v8.52h-1.34Z"/>
      <path d="M1124.16,578.24c-.62,0-1.17-.12-1.67-.36s-.92-.57-1.28-.98c-.36-.41-.64-.88-.83-1.39s-.29-1.05-.29-1.59,.1-1.11,.31-1.63c.21-.52,.5-.98,.86-1.38,.37-.4,.8-.72,1.3-.96,.5-.24,1.04-.35,1.63-.35s1.16,.12,1.66,.37,.93,.58,1.28,1c.36,.42,.63,.88,.83,1.39,.2,.51,.29,1.04,.29,1.57,0,.57-.1,1.11-.31,1.63s-.49,.98-.86,1.38c-.37,.4-.8,.72-1.3,.95-.5,.23-1.04,.35-1.63,.35Zm-2.71-4.32c0,.4,.06,.79,.19,1.16,.13,.38,.31,.71,.55,1,.24,.29,.52,.52,.86,.69s.71,.25,1.13,.25,.82-.09,1.15-.26,.62-.41,.85-.71c.23-.3,.4-.64,.52-1.01s.18-.75,.18-1.12c0-.4-.06-.79-.19-1.16s-.31-.7-.55-1c-.24-.29-.53-.52-.86-.69-.33-.17-.7-.25-1.11-.25-.43,0-.82,.09-1.15,.26s-.62,.41-.85,.71-.41,.63-.53,1-.19,.74-.19,1.13Z"/>
    </g>
    <g>
      <path d="M1071.47,758.53c-.62,0-1.17-.12-1.67-.36s-.92-.57-1.28-.98c-.36-.41-.64-.88-.83-1.39s-.29-1.05-.29-1.59,.1-1.11,.31-1.63c.21-.52,.5-.98,.86-1.38,.37-.4,.8-.72,1.3-.96,.5-.24,1.04-.35,1.63-.35s1.16,.12,1.66,.37,.93,.58,1.28,1c.36,.42,.63,.88,.83,1.39,.2,.51,.29,1.04,.29,1.57,0,.57-.1,1.11-.31,1.63s-.49,.98-.86,1.38c-.37,.4-.8,.72-1.3,.95-.5,.23-1.04,.35-1.63,.35Zm-2.71-4.32c0,.4,.06,.79,.19,1.16,.13,.38,.31,.71,.55,1,.24,.29,.52,.52,.86,.69s.71,.25,1.13,.25,.82-.09,1.15-.26,.62-.41,.85-.71c.23-.3,.4-.64,.52-1.01s.18-.75,.18-1.12c0-.4-.06-.79-.19-1.16s-.31-.7-.55-1c-.24-.29-.53-.52-.86-.69-.33-.17-.7-.25-1.11-.25-.43,0-.82,.09-1.15,.26s-.62,.41-.85,.71-.41,.63-.53,1-.19,.74-.19,1.13Z"/>
      <path d="M1077.09,749.95l2.35,3.35,2.35-3.35h1.49l-3.07,4.32,2.98,4.2h-1.49l-2.26-3.23-2.26,3.23h-1.5l2.98-4.2-3.07-4.32h1.5Z"/>
      <path d="M1084.78,749.95l2.35,3.35,2.35-3.35h1.49l-3.07,4.32,2.98,4.2h-1.49l-2.26-3.23-2.26,3.23h-1.5l2.98-4.2-3.07-4.32h1.5Z"/>
      <path d="M1095.08,758.53c-.62,0-1.17-.12-1.67-.36s-.92-.57-1.28-.98c-.36-.41-.64-.88-.83-1.39s-.29-1.05-.29-1.59,.1-1.11,.31-1.63c.21-.52,.5-.98,.86-1.38,.37-.4,.8-.72,1.3-.96,.5-.24,1.04-.35,1.63-.35s1.16,.12,1.66,.37,.93,.58,1.28,1c.36,.42,.63,.88,.83,1.39,.2,.51,.29,1.04,.29,1.57,0,.57-.1,1.11-.31,1.63s-.49,.98-.86,1.38c-.37,.4-.8,.72-1.3,.95-.5,.23-1.04,.35-1.63,.35Zm-2.71-4.32c0,.4,.06,.79,.19,1.16,.13,.38,.31,.71,.55,1,.24,.29,.52,.52,.86,.69s.71,.25,1.13,.25,.82-.09,1.15-.26,.62-.41,.85-.71c.23-.3,.4-.64,.52-1.01s.18-.75,.18-1.12c0-.4-.06-.79-.19-1.16s-.31-.7-.55-1c-.24-.29-.53-.52-.86-.69-.33-.17-.7-.25-1.11-.25-.43,0-.82,.09-1.15,.26s-.62,.41-.85,.71-.41,.63-.53,1-.19,.74-.19,1.13Z"/>
    </g>
  </g>
  <g>
    <g>
      <path class="cls-21" d="M767.07,864.77v2.13h-.67c-.43,0-.79-.34-.79-.78v-.58c0-.43,.36-.78,.79-.78h.67Z"/>
      <path class="cls-25" d="M767.57,867.4h-1.17c-.71,0-1.29-.57-1.29-1.28v-.58c0-.7,.58-1.28,1.29-1.28h1.17v3.13Zm-1.17-2.13c-.16,0-.29,.12-.29,.28v.58c0,.15,.13,.28,.29,.28h.17v-1.13h-.17Z"/>
    </g>
    <g>
      <rect class="cls-21" x="771.16" y="864.77" width="7.13" height="2.13"/>
      <path class="cls-25" d="M778.79,867.4h-8.13v-3.13h8.13v3.13Zm-7.13-1h6.13v-1.13h-6.13v1.13Z"/>
    </g>
    <g>
      <path class="cls-21" d="M783.83,865.55v.58c0,.43-.36,.78-.79,.78h-.66v-2.13h.66c.43,0,.79,.34,.79,.78Z"/>
      <path class="cls-25" d="M783.04,867.4h-1.17v-3.13h1.17c.71,0,1.29,.57,1.29,1.28v.58c0,.7-.58,1.28-1.29,1.28Zm-.17-1h.17c.16,0,.29-.12,.29-.28v-.58c0-.15-.13-.28-.29-.28h-.17v1.13Z"/>
    </g>
    <g>
      <path class="cls-21" d="M768.77,862.64v6.39h-.76c-.52,0-.94-.41-.94-.92v-4.54c0-.5,.42-.92,.94-.92h.76Z"/>
      <path class="cls-25" d="M769.27,869.53h-1.26c-.79,0-1.44-.64-1.44-1.42v-4.54c0-.79,.64-1.42,1.44-1.42h1.26v7.39Zm-1.26-6.39c-.24,0-.44,.19-.44,.42v4.54c0,.24,.19,.42,.44,.42h.26v-5.39h-.26Z"/>
    </g>
    <g>
      <path class="cls-21" d="M771.16,862.25v7.18c0,.52-.41,.92-.92,.92h-.54c-.5,0-.92-.41-.92-.92v-7.18c0-.5,.42-.92,.92-.92h.54c.52,0,.92,.42,.92,.92Z"/>
      <path class="cls-25" d="M770.23,870.85h-.54c-.79,0-1.42-.64-1.42-1.42v-7.18c0-.79,.64-1.42,1.42-1.42h.54c.78,0,1.42,.64,1.42,1.42v7.18c0,.8-.62,1.42-1.42,1.42Zm-.54-9.03c-.23,0-.42,.19-.42,.42v7.18c0,.23,.19,.42,.42,.42h.54c.24,0,.42-.18,.42-.42v-7.18c0-.23-.19-.42-.42-.42h-.54Z"/>
    </g>
    <g>
      <path class="cls-21" d="M782.38,863.56v4.54c0,.52-.42,.92-.94,.92h-.76v-6.39h.76c.52,0,.94,.42,.94,.92Z"/>
      <path class="cls-25" d="M781.44,869.53h-1.26v-7.39h1.26c.79,0,1.44,.64,1.44,1.42v4.54c0,.79-.64,1.42-1.44,1.42Zm-.26-1h.26c.24,0,.44-.19,.44-.42v-4.54c0-.23-.2-.42-.44-.42h-.26v5.39Z"/>
    </g>
    <g>
      <path class="cls-21" d="M780.68,862.25v7.18c0,.52-.42,.92-.92,.92h-.54c-.52,0-.92-.41-.92-.92v-7.18c0-.5,.41-.92,.92-.92h.54c.5,0,.92,.42,.92,.92Z"/>
      <path class="cls-25" d="M779.75,870.85h-.54c-.8,0-1.42-.62-1.42-1.42v-7.18c0-.79,.64-1.42,1.42-1.42h.54c.78,0,1.42,.64,1.42,1.42v7.18c0,.79-.64,1.42-1.42,1.42Zm-.54-9.03c-.23,0-.42,.19-.42,.42v7.18c0,.24,.18,.42,.42,.42h.54c.23,0,.42-.19,.42-.42v-7.18c0-.23-.19-.42-.42-.42h-.54Z"/>
    </g>
  </g>
  <g>
    <path class="cls-22" d="M881.75,1086.19h23.91c3.31,0,6,2.69,6,6v102.38c0,3.31-2.69,6-6,6h-97.28c-3.31,0-6-2.69-6-6v-29.01c0-43.81,35.56-79.37,79.37-79.37Z"/>
    <path class="cls-25" d="M905.66,1201.07h-97.28c-3.58,0-6.5-2.92-6.5-6.5v-29.01c0-44.04,35.83-79.87,79.87-79.87h23.91c3.58,0,6.5,2.92,6.5,6.5v102.38c0,3.58-2.92,6.5-6.5,6.5Zm-23.91-114.38c-43.49,0-78.87,35.38-78.87,78.87v29.01c0,3.03,2.47,5.5,5.5,5.5h97.28c3.03,0,5.5-2.47,5.5-5.5v-102.38c0-3.03-2.47-5.5-5.5-5.5h-23.91Z"/>
  </g>
  <g>
    <g>
      <path class="cls-21" d="M852.79,1157.1l-2.54-2.54,4-4,13.08-14.74c1.15-1.21,3.08-1.24,4.26-.06h0c1.18,1.18,1.16,3.11-.06,4.26l-14.74,13.08-4,4Z"/>
      <path class="cls-25" d="M852.79,1157.8l-3.24-3.24,4.36-4.36,13.06-14.72c.66-.7,1.54-1.08,2.49-1.1,.95-.02,1.83,.35,2.5,1.02,.67,.67,1.03,1.56,1.02,2.5-.01,.95-.4,1.82-1.08,2.47l-14.76,13.09-4.34,4.34Zm-1.83-3.24l1.83,1.83,3.65-3.65,14.77-13.1c.48-.45,.75-1.08,.76-1.75,0-.67-.25-1.31-.72-1.78s-1.08-.71-1.78-.72c-.67,0-1.3,.28-1.76,.77l-13.07,14.73-3.67,3.67Z"/>
    </g>
    <g>
      <rect class="cls-21" x="852.12" y="1152.3" width="3.59" height="2.26" transform="translate(1065.71 -265.98) rotate(45)"/>
      <path class="cls-25" d="M854.39,1156.21l-3.24-3.24,2.3-2.3,3.24,3.24-2.3,2.3Zm-1.83-3.24l1.83,1.83,.89-.89-1.83-1.83-.89,.89Z"/>
    </g>
    <g>
      <rect class="cls-21" x="850.53" y="1153.9" width="3.59" height="2.26" transform="translate(1066.37 -264.38) rotate(45)"/>
      <path class="cls-25" d="M852.79,1157.8l-3.24-3.24,2.3-2.3,3.24,3.24-2.3,2.3Zm-1.83-3.24l1.83,1.83,.89-.89-1.83-1.83-.89,.89Z"/>
    </g>
    <g>
      <rect class="cls-21" x="848.18" y="1155.53" width="5.26" height="2.02" rx=".71" ry=".71" transform="translate(1067 -262.87) rotate(45)"/>
      <path class="cls-25" d="M851.95,1159.32c-.32,0-.62-.13-.85-.35l-2.72-2.72c-.47-.47-.47-1.24,0-1.71l.43-.43c.47-.47,1.24-.47,1.71,0h0l2.72,2.72c.23,.23,.35,.53,.35,.85s-.13,.62-.35,.85l-.43,.43c-.23,.23-.53,.35-.85,.35Zm-2.28-4.56c-.05,0-.11,.02-.15,.06l-.43,.43c-.08,.08-.08,.21,0,.29l2.72,2.72c.11,.11,.19,.11,.29,0l.43-.43c.05-.05,.06-.11,.06-.15s0-.09-.06-.15l-2.72-2.72s-.09-.06-.15-.06Z"/>
    </g>
  </g>
  <g>
    <g>
      <path class="cls-21" d="M871.26,1145.14c0,1.08-.47,2.04-1.22,2.7-.64,.57-1.47,.9-2.39,.9s-1.74-.34-2.37-.9c-.75-.65-1.23-1.62-1.23-2.7s.47-2.05,1.23-2.7c.64-.57,1.47-.9,2.37-.9s1.75,.34,2.39,.9c.75,.66,1.22,1.63,1.22,2.7Z"/>
      <path class="cls-25" d="M867.65,1149.24c-1,0-1.96-.37-2.71-1.03-.88-.77-1.39-1.89-1.39-3.07s.51-2.31,1.4-3.08c1.5-1.33,3.93-1.32,5.42,0,.88,.78,1.39,1.9,1.39,3.08s-.51,2.29-1.39,3.07c-.75,.66-1.71,1.03-2.72,1.03Zm0-7.21c-.75,0-1.48,.28-2.04,.78-.67,.58-1.06,1.43-1.06,2.33s.38,1.74,1.05,2.32c1.15,1.02,2.98,1,4.1,0,.67-.59,1.05-1.44,1.05-2.32s-.38-1.74-1.05-2.33c-.57-.5-1.3-.78-2.06-.78Z"/>
    </g>
    <g>
      <path class="cls-21" d="M871.26,1145.14c0,1.08-.47,2.04-1.22,2.7-.75-.65-1.23-1.62-1.23-2.7s.47-2.05,1.23-2.7c.75,.66,1.22,1.63,1.22,2.7Z"/>
      <path class="cls-25" d="M870.05,1148.51l-.33-.29c-.89-.77-1.4-1.89-1.4-3.07s.51-2.31,1.4-3.08l.33-.29,.33,.29c.88,.78,1.39,1.9,1.39,3.08s-.51,2.29-1.39,3.07l-.33,.29Zm0-5.35c-.46,.55-.72,1.25-.72,1.99s.26,1.44,.72,1.98c.46-.55,.72-1.26,.72-1.98s-.26-1.44-.72-1.99Z"/>
    </g>
    <g>
      <path class="cls-21" d="M866.5,1145.14c0,1.08-.47,2.04-1.22,2.7-.75-.65-1.23-1.62-1.23-2.7s.47-2.05,1.23-2.7c.75,.66,1.22,1.63,1.22,2.7Z"/>
      <path class="cls-25" d="M865.28,1148.51l-.33-.29c-.89-.77-1.4-1.89-1.4-3.07s.51-2.31,1.4-3.08l.33-.29,.33,.29c.88,.78,1.39,1.9,1.39,3.08s-.51,2.29-1.39,3.07l-.33,.29Zm0-5.35c-.46,.55-.72,1.25-.72,1.99s.26,1.44,.72,1.98c.46-.56,.72-1.26,.72-1.98s-.26-1.44-.72-1.99Z"/>
    </g>
  </g>
</svg>