<?xml version="1.0" encoding="UTF-8"?>
<svg id="Capa_2" data-name="Capa 2" xmlns="http://www.w3.org/2000/svg" viewBox="0 0 49.02 50.01">
  <defs>
    <style>
      .cls-1 {
        fill: #ffcc03;
        stroke: #1d1d1b;
        stroke-miterlimit: 10;
      }

      .cls-2 {
        fill: #19151a;
      }
    </style>
  </defs>
  <g id="Capa_1-2" data-name="Capa 1">
    <g>
      <path class="cls-2" d="M48.56,29.27l-3.8-2.44c.05-.6,.09-1.21,.09-1.82,0-.67-.04-1.33-.1-1.98l3.78-2.47c.4-.26,.56-.83,.39-1.36l-1.32-4c-.18-.54-.64-.9-1.12-.87l-4.52,.26c-.65-1.09-1.4-2.11-2.24-3.06l1.61-4.23c.17-.45-.03-1-.49-1.33l-3.42-2.46c-.46-.33-1.05-.35-1.42-.04l-3.49,2.85c-1.16-.5-2.38-.88-3.63-1.16l-1.18-4.35C27.58,.33,27.09,0,26.52,0l-4.21,.02c-.56,0-1.05,.33-1.17,.8l-1.15,4.36c-1.26,.29-2.47,.68-3.63,1.19l-3.51-2.82c-.37-.3-.96-.28-1.42,.05l-3.4,2.49c-.45,.33-.65,.89-.48,1.33l1.64,4.21c-.83,.95-1.57,1.98-2.22,3.08l-4.52-.22c-.48-.02-.94,.34-1.11,.88L.07,19.37c-.17,.54,0,1.1,.4,1.36l3.8,2.44c-.05,.6-.09,1.21-.09,1.83,0,.67,.04,1.33,.1,1.98L.5,29.45c-.4,.26-.56,.83-.39,1.36l1.32,4c.18,.54,.64,.9,1.12,.87l4.53-.26c.65,1.09,1.4,2.11,2.24,3.05l-1.61,4.24c-.17,.45,.03,1,.49,1.33l3.42,2.46c.46,.33,1.05,.35,1.42,.04l3.51-2.87c1.15,.49,2.36,.87,3.61,1.14l1.19,4.39c.13,.46,.62,.79,1.18,.79l4.21-.02c.56,0,1.05-.33,1.17-.8l1.16-4.41c1.24-.28,2.44-.67,3.58-1.17l3.54,2.85c.37,.3,.96,.28,1.42-.05l3.4-2.49c.45-.33,.65-.89,.48-1.33l-1.65-4.24c.83-.95,1.57-1.97,2.21-3.06l4.53,.22c.48,.02,.94-.34,1.11-.88l1.29-4.01c.17-.54,0-1.1-.4-1.36Zm-24.06,11.7c-8.83,0-15.99-7.14-15.99-15.97S15.68,9,24.5,9s16,7.16,16,16-7.17,15.97-16,15.97Z"/>
      <path class="cls-1" d="M24.51,15.91c-3.25,0-5.89,2.9-5.89,6.47,0,4.13,5.89,11.71,5.89,11.71,0,0,5.97-7.24,5.9-11.71-.06-3.57-2.64-6.47-5.9-6.47Zm0,8.32c-1.31,0-2.36-1.06-2.36-2.36s1.06-2.37,2.36-2.37,2.37,1.06,2.37,2.37-1.06,2.36-2.37,2.36Z"/>
    </g>
  </g>
</svg>