<?xml version="1.0" encoding="UTF-8"?>
<svg id="Capa_2" data-name="Capa 2" xmlns="http://www.w3.org/2000/svg" viewBox="0 0 102.07 69.88">
  <defs>
    <style>
      .cls-1 {
        fill: #feca06;
      }

      .cls-2 {
        fill: #19151a;
      }
    </style>
  </defs>
  <g id="Capa_1-2" data-name="Capa 1">
    <g>
      <path class="cls-1" d="M86.86,29.69l-12.48,9.63,4.83,11.93c1.94,4.79-3.68,9.07-7.77,5.94l-15.57-11.89-16.09-12.28L50.93,4.65c1.66-4.28,7.73-4.28,9.43-.04l7.25,17.95,15.53-1.9c1.35-.16,2.54,.16,3.49,.87,2.58,1.74,3.25,5.86,.24,8.16Z"/>
      <g>
        <path class="cls-1" d="M92.45,17.06h-.03l-4.61,3.54-1.19,.93c2.58,1.74,3.25,5.86,.26,8.18l-12.5,9.63,4.84,11.92c1.94,4.79-3.68,9.05-7.77,5.95l-15.58-11.89-8.61-6.58-1.19-.93-1.22-.93-5.05-3.86-1.22-.93-9.89-7.54-1.25-.96-1.19-.9-7.57-5.77c-3.92-3.02-9.4,.78-7.92,5.54l4.44,14.42-9.92,2.49c-4.99,1.28-5.13,8.27-.23,9.78l15.37,4.61,3.45,11.14c.67,2.12,2.61,3.54,4.82,3.54h53.75c2.23,0,4.18-1.42,4.87-3.54l13.05-42.32c1.48-4.73-4-8.5-7.92-5.51Zm6.53,5.08l-13.02,42.29c-.52,1.54-1.91,2.55-3.51,2.55H28.69c-1.57,0-2.96-1.02-3.42-2.52l-3.45-11.14c-.14-.46-.52-.81-.99-.96l-15.34-4.61c-1.94-.58-2.61-2.23-2.58-3.57,.03-1.31,.78-2.9,2.73-3.39l9.92-2.49c.38-.12,.73-.35,.93-.7,.17-.35,.23-.78,.12-1.16l-4.44-14.42c-.58-1.89,.32-3.34,1.36-4.06,.58-.38,1.31-.67,2.09-.67,.73,0,1.48,.2,2.2,.78l8.01,6.12,1.33,1.02,1.68,1.28,15.43,11.78v.03l1.19,.9,1.22,.9v.03l23.9,18.25c.29,.23,.61,.44,.93,.58,.32,.17,.64,.32,.96,.44,.67,.23,1.36,.35,2.06,.35s1.39-.12,2.06-.38c.67-.23,1.31-.55,1.91-1.02,.2-.15,.38-.32,.55-.49,.38-.35,.7-.75,.99-1.16,1.13-1.74,1.36-3.89,.52-5.98l-4.41-10.91,11.63-8.96c.2-.14,.38-.32,.55-.49,.52-.49,.99-1.1,1.31-1.77,.46-.93,.7-1.94,.67-3.02v-.06c-.03-.32-.06-.61-.12-.9-.06-.41-.17-.78-.29-1.16-.12-.29-.26-.58-.41-.84-.03-.03-.03-.06-.06-.09-.14-.32-.35-.61-.58-.87l4.44-3.42h.03c1.54-1.22,3.22-.84,4.29-.12,1.04,.73,1.94,2.18,1.36,4.03Z"/>
        <path class="cls-2" d="M70.57,58.33l-23.9-18.25v.03l23.9,18.25c.29,.23,.61,.44,.93,.58-.32-.17-.64-.38-.93-.61Zm-25.09-19.17l-1.22-.9v.03l1.19,.9,1.22,.9-1.19-.93Zm25.09,19.17l-23.9-18.25v.03l23.9,18.25c.29,.23,.61,.44,.93,.58-.32-.17-.64-.38-.93-.61Zm-25.09-19.17l-1.22-.9v.03l1.19,.9,1.22,.9-1.19-.93Zm0,0l-1.22-.9v.03l1.19,.9,1.22,.9-1.19-.93Zm25.09,19.17l-23.9-18.25v.03l23.9,18.25c.29,.23,.61,.44,.93,.58-.32-.17-.64-.38-.93-.61Zm-25.09-19.17l-1.22-.9v.03l1.19,.9,1.22,.9-1.19-.93Zm25.09,19.17l-23.9-18.25v.03l23.9,18.25c.29,.23,.61,.44,.93,.58-.32-.17-.64-.38-.93-.61Zm-25.09-19.17l-1.22-.9v.03l1.19,.9,1.22,.9-1.19-.93Zm25.09,19.17l-23.9-18.25v.03l23.9,18.25c.29,.23,.61,.44,.93,.58-.32-.17-.64-.38-.93-.61Z"/>
        <path class="cls-2" d="M99.26,15.72c-2.41-1.65-5.42-1.6-7.72,.17l-5.05,3.89c-1.04-.55-2.23-.73-3.54-.55l-14.42,1.77-6.85-16.94c-.99-2.47-3.36-4.06-6.06-4.06h-.03c-2.73,0-5.05,1.6-6.03,4.12l-6.24,15.87-10.27-1.28c-2.52-.32-4.82,.73-6.12,2.7l-7.4-5.66c-2.29-1.74-5.31-1.83-7.69-.17-2.38,1.65-3.36,4.53-2.49,7.31l4,12.94-8.44,2.15C2,38.7,.09,41.13,0,44.12c-.06,3.02,1.74,5.51,4.64,6.41l14.62,4.38,3.22,10.41c.87,2.73,3.36,4.55,6.21,4.55h53.75c2.84,0,5.37-1.83,6.27-4.55l13.05-42.32c.87-2.76-.12-5.63-2.49-7.28Zm-16.82,51.26H28.69c-1.57,0-2.96-1.02-3.42-2.52l-3.45-11.14c-.14-.46-.52-.81-.99-.96l-15.34-4.61c-1.94-.58-2.61-2.23-2.58-3.57,.03-1.31,.78-2.9,2.73-3.39l9.92-2.49c.38-.12,.73-.35,.93-.7,.17-.35,.23-.78,.12-1.16l-4.44-14.42c-.58-1.89,.32-3.34,1.36-4.06,.58-.38,1.31-.67,2.09-.67,.73,0,1.48,.2,2.2,.78l8.01,6.12,1.33,1.02,1.68,1.28,15.43,11.78,1.22,.9,1.19,.93,23.9,18.25c.29,.23,.61,.43,.93,.61s.64,.32,.96,.44c1.33,.43,2.78,.43,4.12-.03,.67-.23,1.31-.55,1.91-1.02,.2-.15,.38-.32,.55-.49,.38-.35,.7-.75,.99-1.16,1.13-1.74,1.36-3.89,.52-5.98l-4.41-10.91,11.63-8.96c.2-.14,.38-.32,.55-.49,.52-.49,.99-1.1,1.31-1.77,.46-.93,.7-1.94,.67-3.02v-.06c-.03-.32-.06-.61-.12-.9-.06-.41-.17-.78-.29-1.16-.12-.29-.26-.58-.41-.84-.03-.03-.03-.06-.06-.09-.14-.32-.35-.61-.58-.87l4.44-3.42h.03c1.54-1.22,3.22-.84,4.29-.12,1.04,.73,1.94,2.18,1.36,4.03l-13.02,42.29c-.52,1.54-1.91,2.55-3.51,2.55ZM32.17,21.55c.17,0,.35,0,.52,.03l9.54,1.19-3.1,7.95-9.89-7.57c.58-.87,1.57-1.6,2.93-1.6Zm14.16-1.19l5.95-15.17c.67-1.68,2.18-2.29,3.34-2.29h.03c1.19,0,2.7,.58,3.36,2.26l7.25,17.96c.26,.58,.87,.99,1.54,.87l15.52-1.89c.96-.12,1.77,.09,2.49,.64,.06,.03,.12,.09,.17,.12,.06,.03,.12,.09,.17,.15,.12,.09,.2,.17,.29,.29,.61,.64,.93,1.51,.96,2.38,.03,.58-.12,1.13-.35,1.62-.14,.26-.29,.49-.46,.67-.17,.23-.38,.41-.58,.58l-12.5,9.63c-.09,.06-.14,.14-.23,.23-.09,.12-.17,.23-.2,.35-.06,.09-.09,.17-.09,.26-.03,.03-.03,.06-.03,.09-.03,.26-.03,.52,.09,.75v.03l4.84,11.92c.46,1.19,.32,2.23-.14,3.05-.2,.38-.46,.7-.75,.96-.09,.09-.17,.17-.26,.23-1.07,.81-2.78,1.25-4.41,0l-24.48-18.68v-.03l-1.22-.9-1.19-.93-3.89-2.99,1.8-4.61,1.89-4.76,.23-.61,.32-.78,.55-1.39Z"/>
        <path class="cls-1" d="M98.97,22.13l-13.02,42.29c-.52,1.54-1.91,2.55-3.51,2.55H28.69c-1.57,0-2.96-1.02-3.42-2.52l-3.45-11.14c-.14-.46-.52-.81-.99-.96l-15.34-4.61c-1.94-.58-2.61-2.23-2.58-3.57,.03-1.31,.78-2.9,2.73-3.39l9.92-2.49c.38-.12,.73-.35,.93-.7,.17-.35,.23-.78,.12-1.16l-4.44-14.42c-.58-1.89,.32-3.34,1.36-4.06,.58-.38,1.31-.67,2.09-.67,.73,0,1.48,.2,2.2,.78l8.01,6.12,1.33,1.02,1.68,1.28,15.43,11.78v.03l1.19,.9,1.22,.9v.03l23.9,18.25c.29,.23,.61,.44,.93,.58,.32,.17,.64,.32,.96,.44,.67,.23,1.36,.35,2.06,.35s1.39-.12,2.06-.38c.67-.23,1.31-.55,1.91-1.02,.2-.15,.38-.32,.55-.49,.38-.35,.7-.75,.99-1.16,1.13-1.74,1.36-3.89,.52-5.98l-4.41-10.91,11.63-8.96c.2-.14,.38-.32,.55-.49,.52-.49,.99-1.1,1.31-1.77,.46-.93,.7-1.94,.67-3.02v-.06c-.03-.32-.06-.61-.12-.9-.06-.41-.17-.78-.29-1.16-.12-.29-.26-.58-.41-.84-.03-.03-.03-.06-.06-.09-.14-.32-.35-.61-.58-.87l4.44-3.42h.03c1.54-1.22,3.22-.84,4.29-.12,1.04,.73,1.94,2.18,1.36,4.03Z"/>
      </g>
      <path class="cls-1" d="M27.99,37.71c0,.06-.03,.17-.17,.17l-.12-.17h.29Z"/>
      <path class="cls-2" d="M65.21,28.64c0,1.68-1.36,3.05-3.05,3.05s-3.05-1.36-3.05-3.05,1.36-3.07,3.05-3.07,3.05,1.39,3.05,3.07Z"/>
      <path class="cls-2" d="M46.67,28.64c0,1.68-1.36,3.05-3.05,3.05-.75,0-1.42-.26-1.94-.73-.67-.55-1.1-1.39-1.1-2.32,0-1.1,.58-2.09,1.48-2.64,.46-.26,.99-.44,1.57-.44,.06,0,.12,0,.17,.03,.78,.03,1.48,.35,1.97,.87,.55,.58,.9,1.33,.9,2.18Z"/>
      <g>
        <path class="cls-1" d="M49.07,31.92c1.17,2.26,5.23,2.35,6.73,0"/>
        <path class="cls-2" d="M52.36,35.1c-.09,0-.18,0-.27,0-1.92-.08-3.53-1.02-4.31-2.51-.37-.71-.09-1.59,.62-1.95,.7-.36,1.59-.1,1.95,.62,.29,.55,1,.91,1.86,.95,.98,.05,1.92-.37,2.36-1.06,.43-.67,1.32-.87,2-.44,.67,.43,.88,1.33,.44,2-.95,1.5-2.72,2.4-4.66,2.4Z"/>
      </g>
      <path class="cls-2" d="M32.29,42.12c0,1.71-1.33,3.07-3.07,3.07s-3.02-1.39-3.02-3.07,1.36-3.05,3.02-3.05,3.07,1.36,3.07,3.05Z"/>
      <path class="cls-1" d="M42.24,22.77l-3.1,7.95-9.89-7.57c.58-.87,1.57-1.6,2.93-1.6,.17,0,.35,0,.52,.03l9.54,1.19Z"/>
    </g>
  </g>
</svg>